<mxfile host="65bd71144e" pages="3">
    <diagram id="R2lEEEUBdFMjLlhIrx00" name="DIAGRAM">
        <mxGraphModel dx="820" dy="516" grid="1" gridSize="10" guides="1" tooltips="1" connect="1" arrows="1" fold="1" page="1" pageScale="1" pageWidth="850" pageHeight="1100" math="0" shadow="0" extFonts="Permanent Marker^https://fonts.googleapis.com/css?family=Permanent+Marker">
            <root>
                <mxCell id="0"/>
                <mxCell id="1" parent="0"/>
                <mxCell id="eOsGhqvjalcYXfXRWb8f-1" value="plant id" style="rounded=0;whiteSpace=wrap;html=1;fillColor=default;" parent="1" vertex="1">
                    <mxGeometry x="80" y="90" width="120" height="30" as="geometry"/>
                </mxCell>
                <mxCell id="eOsGhqvjalcYXfXRWb8f-3" value="name" style="rounded=0;whiteSpace=wrap;html=1;fillColor=default;" parent="1" vertex="1">
                    <mxGeometry x="320" y="90" width="120" height="30" as="geometry"/>
                </mxCell>
                <mxCell id="eOsGhqvjalcYXfXRWb8f-4" value="scientific name" style="rounded=0;whiteSpace=wrap;html=1;fillColor=default;" parent="1" vertex="1">
                    <mxGeometry x="200" y="90" width="120" height="30" as="geometry"/>
                </mxCell>
                <mxCell id="eOsGhqvjalcYXfXRWb8f-5" value="PLANT" style="text;html=1;align=center;verticalAlign=middle;resizable=0;points=[];autosize=1;strokeColor=none;fillColor=none;" parent="1" vertex="1">
                    <mxGeometry x="80" y="50" width="50" height="20" as="geometry"/>
                </mxCell>
                <mxCell id="eOsGhqvjalcYXfXRWb8f-6" value="PK" style="text;html=1;align=center;verticalAlign=middle;resizable=0;points=[];autosize=1;strokeColor=none;fillColor=none;" parent="1" vertex="1">
                    <mxGeometry x="125" y="70" width="30" height="20" as="geometry"/>
                </mxCell>
                <mxCell id="eOsGhqvjalcYXfXRWb8f-20" style="edgeStyle=orthogonalEdgeStyle;rounded=0;orthogonalLoop=1;jettySize=auto;html=1;exitX=0.5;exitY=1;exitDx=0;exitDy=0;entryX=0.5;entryY=1;entryDx=0;entryDy=0;" parent="1" source="eOsGhqvjalcYXfXRWb8f-7" target="eOsGhqvjalcYXfXRWb8f-8" edge="1">
                    <mxGeometry relative="1" as="geometry">
                        <Array as="points">
                            <mxPoint x="140" y="300"/>
                            <mxPoint x="260" y="300"/>
                            <mxPoint x="260" y="300"/>
                        </Array>
                    </mxGeometry>
                </mxCell>
                <mxCell id="eOsGhqvjalcYXfXRWb8f-7" value="crop id" style="rounded=0;whiteSpace=wrap;html=1;fillColor=default;" parent="1" vertex="1">
                    <mxGeometry x="80" y="240" width="120" height="30" as="geometry"/>
                </mxCell>
                <mxCell id="eOsGhqvjalcYXfXRWb8f-8" value="plant id" style="rounded=0;whiteSpace=wrap;html=1;fillColor=default;" parent="1" vertex="1">
                    <mxGeometry x="200" y="240" width="120" height="30" as="geometry"/>
                </mxCell>
                <mxCell id="eOsGhqvjalcYXfXRWb8f-9" value="PK" style="text;html=1;align=center;verticalAlign=middle;resizable=0;points=[];autosize=1;strokeColor=none;fillColor=none;" parent="1" vertex="1">
                    <mxGeometry x="125" y="220" width="30" height="20" as="geometry"/>
                </mxCell>
                <mxCell id="eOsGhqvjalcYXfXRWb8f-10" value="FK" style="text;html=1;align=center;verticalAlign=middle;resizable=0;points=[];autosize=1;strokeColor=none;fillColor=none;" parent="1" vertex="1">
                    <mxGeometry x="245" y="220" width="30" height="20" as="geometry"/>
                </mxCell>
                <mxCell id="eOsGhqvjalcYXfXRWb8f-12" value="area" style="rounded=0;whiteSpace=wrap;html=1;fillColor=default;" parent="1" vertex="1">
                    <mxGeometry x="320" y="240" width="120" height="30" as="geometry"/>
                </mxCell>
                <mxCell id="eOsGhqvjalcYXfXRWb8f-13" value="number of plants" style="rounded=0;whiteSpace=wrap;html=1;fillColor=default;" parent="1" vertex="1">
                    <mxGeometry x="440" y="240" width="120" height="30" as="geometry"/>
                </mxCell>
                <mxCell id="eOsGhqvjalcYXfXRWb8f-15" value="CROP" style="text;html=1;align=center;verticalAlign=middle;resizable=0;points=[];autosize=1;strokeColor=none;fillColor=none;" parent="1" vertex="1">
                    <mxGeometry x="80" y="200" width="50" height="20" as="geometry"/>
                </mxCell>
                <mxCell id="eOsGhqvjalcYXfXRWb8f-27" value="" style="endArrow=classic;html=1;rounded=0;entryX=0.5;entryY=1;entryDx=0;entryDy=0;" parent="1" target="eOsGhqvjalcYXfXRWb8f-12" edge="1">
                    <mxGeometry width="50" height="50" relative="1" as="geometry">
                        <mxPoint x="260" y="300" as="sourcePoint"/>
                        <mxPoint x="370" y="330" as="targetPoint"/>
                        <Array as="points">
                            <mxPoint x="380" y="300"/>
                        </Array>
                    </mxGeometry>
                </mxCell>
                <mxCell id="eOsGhqvjalcYXfXRWb8f-28" value="" style="endArrow=classic;html=1;rounded=0;entryX=0.5;entryY=1;entryDx=0;entryDy=0;" parent="1" edge="1">
                    <mxGeometry width="50" height="50" relative="1" as="geometry">
                        <mxPoint x="380" y="300" as="sourcePoint"/>
                        <mxPoint x="500" y="270" as="targetPoint"/>
                        <Array as="points">
                            <mxPoint x="500" y="300"/>
                        </Array>
                    </mxGeometry>
                </mxCell>
                <mxCell id="eOsGhqvjalcYXfXRWb8f-34" style="edgeStyle=orthogonalEdgeStyle;rounded=0;orthogonalLoop=1;jettySize=auto;html=1;exitX=0.5;exitY=1;exitDx=0;exitDy=0;entryX=0.5;entryY=1;entryDx=0;entryDy=0;" parent="1" edge="1">
                    <mxGeometry relative="1" as="geometry">
                        <mxPoint x="140" y="120" as="sourcePoint"/>
                        <mxPoint x="260" y="120" as="targetPoint"/>
                        <Array as="points">
                            <mxPoint x="140" y="150"/>
                            <mxPoint x="260" y="150"/>
                            <mxPoint x="260" y="150"/>
                        </Array>
                    </mxGeometry>
                </mxCell>
                <mxCell id="eOsGhqvjalcYXfXRWb8f-35" value="" style="endArrow=classic;html=1;rounded=0;entryX=0.5;entryY=1;entryDx=0;entryDy=0;" parent="1" target="eOsGhqvjalcYXfXRWb8f-3" edge="1">
                    <mxGeometry width="50" height="50" relative="1" as="geometry">
                        <mxPoint x="200" y="150" as="sourcePoint"/>
                        <mxPoint x="380" y="150" as="targetPoint"/>
                        <Array as="points">
                            <mxPoint x="200" y="180"/>
                            <mxPoint x="380" y="180"/>
                        </Array>
                    </mxGeometry>
                </mxCell>
                <mxCell id="eOsGhqvjalcYXfXRWb8f-36" value="info colheita id" style="rounded=0;whiteSpace=wrap;html=1;fillColor=default;" parent="1" vertex="1">
                    <mxGeometry x="80" y="860" width="120" height="30" as="geometry"/>
                </mxCell>
                <mxCell id="eOsGhqvjalcYXfXRWb8f-38" value="PK" style="text;html=1;align=center;verticalAlign=middle;resizable=0;points=[];autosize=1;strokeColor=none;fillColor=none;" parent="1" vertex="1">
                    <mxGeometry x="125" y="840" width="30" height="20" as="geometry"/>
                </mxCell>
                <mxCell id="eOsGhqvjalcYXfXRWb8f-40" value="INFO COLHEITA" style="text;html=1;align=center;verticalAlign=middle;resizable=0;points=[];autosize=1;strokeColor=none;fillColor=none;" parent="1" vertex="1">
                    <mxGeometry x="80" y="820" width="110" height="20" as="geometry"/>
                </mxCell>
                <mxCell id="eOsGhqvjalcYXfXRWb8f-41" value="data colheita" style="rounded=0;whiteSpace=wrap;html=1;fillColor=default;" parent="1" vertex="1">
                    <mxGeometry x="201" y="860" width="120" height="30" as="geometry"/>
                </mxCell>
                <mxCell id="eOsGhqvjalcYXfXRWb8f-42" value="area colhida" style="rounded=0;whiteSpace=wrap;html=1;fillColor=default;" parent="1" vertex="1">
                    <mxGeometry x="321" y="860" width="120" height="30" as="geometry"/>
                </mxCell>
                <mxCell id="eOsGhqvjalcYXfXRWb8f-43" value="produção" style="rounded=0;whiteSpace=wrap;html=1;fillColor=default;" parent="1" vertex="1">
                    <mxGeometry x="441" y="860" width="120" height="30" as="geometry"/>
                </mxCell>
                <mxCell id="eOsGhqvjalcYXfXRWb8f-44" value="context: colheita" style="rounded=0;whiteSpace=wrap;html=1;fillColor=default;" parent="1" vertex="1">
                    <mxGeometry x="561" y="860" width="120" height="30" as="geometry"/>
                </mxCell>
                <mxCell id="eOsGhqvjalcYXfXRWb8f-45" style="edgeStyle=orthogonalEdgeStyle;rounded=0;orthogonalLoop=1;jettySize=auto;html=1;exitX=0.5;exitY=1;exitDx=0;exitDy=0;entryX=0.5;entryY=1;entryDx=0;entryDy=0;" parent="1" edge="1">
                    <mxGeometry relative="1" as="geometry">
                        <mxPoint x="140" y="890" as="sourcePoint"/>
                        <mxPoint x="260" y="890" as="targetPoint"/>
                        <Array as="points">
                            <mxPoint x="140" y="920"/>
                            <mxPoint x="260" y="920"/>
                            <mxPoint x="260" y="920"/>
                        </Array>
                    </mxGeometry>
                </mxCell>
                <mxCell id="eOsGhqvjalcYXfXRWb8f-46" value="" style="endArrow=classic;html=1;rounded=0;entryX=0.5;entryY=1;entryDx=0;entryDy=0;" parent="1" edge="1">
                    <mxGeometry width="50" height="50" relative="1" as="geometry">
                        <mxPoint x="260" y="920" as="sourcePoint"/>
                        <mxPoint x="380" y="890" as="targetPoint"/>
                        <Array as="points">
                            <mxPoint x="380" y="920"/>
                        </Array>
                    </mxGeometry>
                </mxCell>
                <mxCell id="eOsGhqvjalcYXfXRWb8f-47" value="" style="endArrow=classic;html=1;rounded=0;entryX=0.5;entryY=1;entryDx=0;entryDy=0;" parent="1" edge="1">
                    <mxGeometry width="50" height="50" relative="1" as="geometry">
                        <mxPoint x="380" y="920" as="sourcePoint"/>
                        <mxPoint x="500" y="890" as="targetPoint"/>
                        <Array as="points">
                            <mxPoint x="500" y="920"/>
                        </Array>
                    </mxGeometry>
                </mxCell>
                <mxCell id="eOsGhqvjalcYXfXRWb8f-48" value="" style="endArrow=classic;html=1;rounded=0;entryX=0.5;entryY=1;entryDx=0;entryDy=0;" parent="1" edge="1">
                    <mxGeometry width="50" height="50" relative="1" as="geometry">
                        <mxPoint x="500" y="920" as="sourcePoint"/>
                        <mxPoint x="620" y="890" as="targetPoint"/>
                        <Array as="points">
                            <mxPoint x="620" y="920"/>
                        </Array>
                    </mxGeometry>
                </mxCell>
                <mxCell id="eOsGhqvjalcYXfXRWb8f-50" value="info irrigação id" style="rounded=0;whiteSpace=wrap;html=1;fillColor=default;" parent="1" vertex="1">
                    <mxGeometry x="80" y="980" width="120" height="30" as="geometry"/>
                </mxCell>
                <mxCell id="eOsGhqvjalcYXfXRWb8f-52" value="PK" style="text;html=1;align=center;verticalAlign=middle;resizable=0;points=[];autosize=1;strokeColor=none;fillColor=none;" parent="1" vertex="1">
                    <mxGeometry x="125" y="960" width="30" height="20" as="geometry"/>
                </mxCell>
                <mxCell id="eOsGhqvjalcYXfXRWb8f-54" value="INFO IRRIGAÇÃO" style="text;html=1;align=center;verticalAlign=middle;resizable=0;points=[];autosize=1;strokeColor=none;fillColor=none;" parent="1" vertex="1">
                    <mxGeometry x="80" y="940" width="110" height="20" as="geometry"/>
                </mxCell>
                <mxCell id="eOsGhqvjalcYXfXRWb8f-55" value="data irrigação" style="rounded=0;whiteSpace=wrap;html=1;fillColor=default;" parent="1" vertex="1">
                    <mxGeometry x="201" y="980" width="120" height="30" as="geometry"/>
                </mxCell>
                <mxCell id="eOsGhqvjalcYXfXRWb8f-56" value="tempo de irrigação" style="rounded=0;whiteSpace=wrap;html=1;fillColor=default;" parent="1" vertex="1">
                    <mxGeometry x="321" y="980" width="120" height="30" as="geometry"/>
                </mxCell>
                <mxCell id="eOsGhqvjalcYXfXRWb8f-57" value="context: irrigação" style="rounded=0;whiteSpace=wrap;html=1;fillColor=default;" parent="1" vertex="1">
                    <mxGeometry x="441" y="980" width="120" height="30" as="geometry"/>
                </mxCell>
                <mxCell id="eOsGhqvjalcYXfXRWb8f-59" style="edgeStyle=orthogonalEdgeStyle;rounded=0;orthogonalLoop=1;jettySize=auto;html=1;exitX=0.5;exitY=1;exitDx=0;exitDy=0;entryX=0.5;entryY=1;entryDx=0;entryDy=0;" parent="1" edge="1">
                    <mxGeometry relative="1" as="geometry">
                        <mxPoint x="140" y="1010" as="sourcePoint"/>
                        <mxPoint x="260" y="1010" as="targetPoint"/>
                        <Array as="points">
                            <mxPoint x="140" y="1040"/>
                            <mxPoint x="260" y="1040"/>
                            <mxPoint x="260" y="1040"/>
                        </Array>
                    </mxGeometry>
                </mxCell>
                <mxCell id="eOsGhqvjalcYXfXRWb8f-60" value="" style="endArrow=classic;html=1;rounded=0;entryX=0.5;entryY=1;entryDx=0;entryDy=0;" parent="1" edge="1">
                    <mxGeometry width="50" height="50" relative="1" as="geometry">
                        <mxPoint x="260" y="1040" as="sourcePoint"/>
                        <mxPoint x="380" y="1010" as="targetPoint"/>
                        <Array as="points">
                            <mxPoint x="380" y="1040"/>
                        </Array>
                    </mxGeometry>
                </mxCell>
                <mxCell id="eOsGhqvjalcYXfXRWb8f-61" value="" style="endArrow=classic;html=1;rounded=0;entryX=0.5;entryY=1;entryDx=0;entryDy=0;" parent="1" edge="1">
                    <mxGeometry width="50" height="50" relative="1" as="geometry">
                        <mxPoint x="380" y="1040" as="sourcePoint"/>
                        <mxPoint x="500" y="1010" as="targetPoint"/>
                        <Array as="points">
                            <mxPoint x="500" y="1040"/>
                        </Array>
                    </mxGeometry>
                </mxCell>
                <mxCell id="eOsGhqvjalcYXfXRWb8f-63" value="info fertilização id" style="rounded=0;whiteSpace=wrap;html=1;fillColor=default;" parent="1" vertex="1">
                    <mxGeometry x="80" y="1100" width="120" height="30" as="geometry"/>
                </mxCell>
                <mxCell id="eOsGhqvjalcYXfXRWb8f-65" value="data fertilização" style="rounded=0;whiteSpace=wrap;html=1;fillColor=default;" parent="1" vertex="1">
                    <mxGeometry x="201" y="1100" width="120" height="30" as="geometry"/>
                </mxCell>
                <mxCell id="eOsGhqvjalcYXfXRWb8f-66" value="fertilizante" style="rounded=0;whiteSpace=wrap;html=1;fillColor=default;" parent="1" vertex="1">
                    <mxGeometry x="321" y="1100" width="120" height="30" as="geometry"/>
                </mxCell>
                <mxCell id="eOsGhqvjalcYXfXRWb8f-67" value="context: fertilização" style="rounded=0;whiteSpace=wrap;html=1;fillColor=default;" parent="1" vertex="1">
                    <mxGeometry x="441" y="1100" width="120" height="30" as="geometry"/>
                </mxCell>
                <mxCell id="eOsGhqvjalcYXfXRWb8f-68" value="PK" style="text;html=1;align=center;verticalAlign=middle;resizable=0;points=[];autosize=1;strokeColor=none;fillColor=none;" parent="1" vertex="1">
                    <mxGeometry x="125" y="1080" width="30" height="20" as="geometry"/>
                </mxCell>
                <mxCell id="eOsGhqvjalcYXfXRWb8f-70" value="INFO FERTILIZAÇÃO" style="text;html=1;align=center;verticalAlign=middle;resizable=0;points=[];autosize=1;strokeColor=none;fillColor=none;" parent="1" vertex="1">
                    <mxGeometry x="80" y="1060" width="130" height="20" as="geometry"/>
                </mxCell>
                <mxCell id="eOsGhqvjalcYXfXRWb8f-71" value="info manejo id" style="rounded=0;whiteSpace=wrap;html=1;fillColor=default;" parent="1" vertex="1">
                    <mxGeometry x="80" y="1220" width="120" height="30" as="geometry"/>
                </mxCell>
                <mxCell id="eOsGhqvjalcYXfXRWb8f-73" value="data manejo" style="rounded=0;whiteSpace=wrap;html=1;fillColor=default;" parent="1" vertex="1">
                    <mxGeometry x="200" y="1220" width="120" height="30" as="geometry"/>
                </mxCell>
                <mxCell id="eOsGhqvjalcYXfXRWb8f-74" value="produto utilizado" style="rounded=0;whiteSpace=wrap;html=1;fillColor=default;" parent="1" vertex="1">
                    <mxGeometry x="320" y="1220" width="120" height="30" as="geometry"/>
                </mxCell>
                <mxCell id="eOsGhqvjalcYXfXRWb8f-75" value="context: manejo" style="rounded=0;whiteSpace=wrap;html=1;fillColor=default;" parent="1" vertex="1">
                    <mxGeometry x="440" y="1220" width="120" height="30" as="geometry"/>
                </mxCell>
                <mxCell id="eOsGhqvjalcYXfXRWb8f-76" value="PK" style="text;html=1;align=center;verticalAlign=middle;resizable=0;points=[];autosize=1;strokeColor=none;fillColor=none;" parent="1" vertex="1">
                    <mxGeometry x="125" y="1200" width="30" height="20" as="geometry"/>
                </mxCell>
                <mxCell id="eOsGhqvjalcYXfXRWb8f-78" value="INFO MANEJO PRAGAS" style="text;html=1;align=center;verticalAlign=middle;resizable=0;points=[];autosize=1;strokeColor=none;fillColor=none;" parent="1" vertex="1">
                    <mxGeometry x="80" y="1180" width="150" height="20" as="geometry"/>
                </mxCell>
                <mxCell id="eOsGhqvjalcYXfXRWb8f-79" style="edgeStyle=orthogonalEdgeStyle;rounded=0;orthogonalLoop=1;jettySize=auto;html=1;exitX=0.5;exitY=1;exitDx=0;exitDy=0;entryX=0.5;entryY=1;entryDx=0;entryDy=0;" parent="1" edge="1">
                    <mxGeometry relative="1" as="geometry">
                        <mxPoint x="140" y="1130" as="sourcePoint"/>
                        <mxPoint x="260" y="1130" as="targetPoint"/>
                        <Array as="points">
                            <mxPoint x="140" y="1160"/>
                            <mxPoint x="260" y="1160"/>
                            <mxPoint x="260" y="1160"/>
                        </Array>
                    </mxGeometry>
                </mxCell>
                <mxCell id="eOsGhqvjalcYXfXRWb8f-80" style="edgeStyle=orthogonalEdgeStyle;rounded=0;orthogonalLoop=1;jettySize=auto;html=1;exitX=0.5;exitY=1;exitDx=0;exitDy=0;entryX=0.5;entryY=1;entryDx=0;entryDy=0;" parent="1" edge="1">
                    <mxGeometry relative="1" as="geometry">
                        <mxPoint x="140" y="1250" as="sourcePoint"/>
                        <mxPoint x="260" y="1250" as="targetPoint"/>
                        <Array as="points">
                            <mxPoint x="140" y="1280"/>
                            <mxPoint x="260" y="1280"/>
                            <mxPoint x="260" y="1280"/>
                        </Array>
                    </mxGeometry>
                </mxCell>
                <mxCell id="eOsGhqvjalcYXfXRWb8f-81" value="" style="endArrow=classic;html=1;rounded=0;entryX=0.5;entryY=1;entryDx=0;entryDy=0;" parent="1" edge="1">
                    <mxGeometry width="50" height="50" relative="1" as="geometry">
                        <mxPoint x="260" y="1160" as="sourcePoint"/>
                        <mxPoint x="380" y="1130" as="targetPoint"/>
                        <Array as="points">
                            <mxPoint x="380" y="1160"/>
                        </Array>
                    </mxGeometry>
                </mxCell>
                <mxCell id="eOsGhqvjalcYXfXRWb8f-82" value="" style="endArrow=classic;html=1;rounded=0;entryX=0.5;entryY=1;entryDx=0;entryDy=0;" parent="1" edge="1">
                    <mxGeometry width="50" height="50" relative="1" as="geometry">
                        <mxPoint x="380" y="1160" as="sourcePoint"/>
                        <mxPoint x="500" y="1130" as="targetPoint"/>
                        <Array as="points">
                            <mxPoint x="500" y="1160"/>
                        </Array>
                    </mxGeometry>
                </mxCell>
                <mxCell id="eOsGhqvjalcYXfXRWb8f-84" value="" style="endArrow=classic;html=1;rounded=0;entryX=0.5;entryY=1;entryDx=0;entryDy=0;" parent="1" edge="1">
                    <mxGeometry width="50" height="50" relative="1" as="geometry">
                        <mxPoint x="260" y="1280" as="sourcePoint"/>
                        <mxPoint x="380" y="1250" as="targetPoint"/>
                        <Array as="points">
                            <mxPoint x="380" y="1280"/>
                        </Array>
                    </mxGeometry>
                </mxCell>
                <mxCell id="eOsGhqvjalcYXfXRWb8f-85" value="" style="endArrow=classic;html=1;rounded=0;entryX=0.5;entryY=1;entryDx=0;entryDy=0;" parent="1" edge="1">
                    <mxGeometry width="50" height="50" relative="1" as="geometry">
                        <mxPoint x="380" y="1280" as="sourcePoint"/>
                        <mxPoint x="500" y="1250" as="targetPoint"/>
                        <Array as="points">
                            <mxPoint x="500" y="1280"/>
                        </Array>
                    </mxGeometry>
                </mxCell>
                <mxCell id="Pdn4NRtDRC-jsirEp371-1" value="CK" style="text;html=1;align=center;verticalAlign=middle;resizable=0;points=[];autosize=1;strokeColor=none;fillColor=none;" parent="1" vertex="1">
                    <mxGeometry x="245" y="70" width="30" height="20" as="geometry"/>
                </mxCell>
                <mxCell id="sewYEI5TkFoOqC2MHQLa-1" value="product id" style="rounded=0;whiteSpace=wrap;html=1;fillColor=default;" parent="1" vertex="1">
                    <mxGeometry x="80" y="1370" width="120" height="30" as="geometry"/>
                </mxCell>
                <mxCell id="sewYEI5TkFoOqC2MHQLa-2" value="PRODUTO MANEJO PRAGAS" style="text;html=1;align=center;verticalAlign=middle;resizable=0;points=[];autosize=1;strokeColor=none;fillColor=none;" parent="1" vertex="1">
                    <mxGeometry x="90" y="1330" width="180" height="20" as="geometry"/>
                </mxCell>
                <mxCell id="sewYEI5TkFoOqC2MHQLa-3" value="PK" style="text;html=1;align=center;verticalAlign=middle;resizable=0;points=[];autosize=1;strokeColor=none;fillColor=none;" parent="1" vertex="1">
                    <mxGeometry x="125" y="1350" width="30" height="20" as="geometry"/>
                </mxCell>
                <mxCell id="sewYEI5TkFoOqC2MHQLa-4" value="name" style="rounded=0;whiteSpace=wrap;html=1;fillColor=default;" parent="1" vertex="1">
                    <mxGeometry x="200" y="1370" width="120" height="30" as="geometry"/>
                </mxCell>
                <mxCell id="sewYEI5TkFoOqC2MHQLa-5" value="price" style="rounded=0;whiteSpace=wrap;html=1;fillColor=default;" parent="1" vertex="1">
                    <mxGeometry x="320" y="1370" width="120" height="30" as="geometry"/>
                </mxCell>
                <mxCell id="sewYEI5TkFoOqC2MHQLa-6" style="edgeStyle=orthogonalEdgeStyle;rounded=0;orthogonalLoop=1;jettySize=auto;html=1;exitX=0.5;exitY=1;exitDx=0;exitDy=0;entryX=0.5;entryY=1;entryDx=0;entryDy=0;" parent="1" edge="1">
                    <mxGeometry relative="1" as="geometry">
                        <mxPoint x="140" y="1400" as="sourcePoint"/>
                        <mxPoint x="260" y="1400" as="targetPoint"/>
                        <Array as="points">
                            <mxPoint x="140" y="1430"/>
                            <mxPoint x="260" y="1430"/>
                            <mxPoint x="260" y="1430"/>
                        </Array>
                    </mxGeometry>
                </mxCell>
                <mxCell id="sewYEI5TkFoOqC2MHQLa-7" value="" style="endArrow=classic;html=1;rounded=0;entryX=0.5;entryY=1;entryDx=0;entryDy=0;" parent="1" target="sewYEI5TkFoOqC2MHQLa-5" edge="1">
                    <mxGeometry width="50" height="50" relative="1" as="geometry">
                        <mxPoint x="200" y="1430" as="sourcePoint"/>
                        <mxPoint x="340" y="1430" as="targetPoint"/>
                        <Array as="points">
                            <mxPoint x="200" y="1460"/>
                            <mxPoint x="380" y="1460"/>
                        </Array>
                    </mxGeometry>
                </mxCell>
                <mxCell id="sewYEI5TkFoOqC2MHQLa-9" value="info manejo id" style="rounded=0;whiteSpace=wrap;html=1;fillColor=default;" parent="1" vertex="1">
                    <mxGeometry x="80" y="1520" width="120" height="30" as="geometry"/>
                </mxCell>
                <mxCell id="sewYEI5TkFoOqC2MHQLa-10" value="PRODUTO UTILIZADO CONTROLE" style="text;html=1;align=center;verticalAlign=middle;resizable=0;points=[];autosize=1;strokeColor=none;fillColor=none;" parent="1" vertex="1">
                    <mxGeometry x="80" y="1480" width="210" height="20" as="geometry"/>
                </mxCell>
                <mxCell id="sewYEI5TkFoOqC2MHQLa-11" value="product id" style="rounded=0;whiteSpace=wrap;html=1;fillColor=default;" parent="1" vertex="1">
                    <mxGeometry x="200" y="1520" width="120" height="30" as="geometry"/>
                </mxCell>
                <mxCell id="sewYEI5TkFoOqC2MHQLa-12" value="PK/FK" style="text;html=1;align=center;verticalAlign=middle;resizable=0;points=[];autosize=1;strokeColor=none;fillColor=none;" parent="1" vertex="1">
                    <mxGeometry x="115" y="1500" width="50" height="20" as="geometry"/>
                </mxCell>
                <mxCell id="sewYEI5TkFoOqC2MHQLa-13" value="PK/FK" style="text;html=1;align=center;verticalAlign=middle;resizable=0;points=[];autosize=1;strokeColor=none;fillColor=none;" parent="1" vertex="1">
                    <mxGeometry x="235" y="1500" width="50" height="20" as="geometry"/>
                </mxCell>
                <mxCell id="kUxSdJ867kgtezRcBDH2-1" value="event info id" style="rounded=0;whiteSpace=wrap;html=1;fillColor=default;" parent="1" vertex="1">
                    <mxGeometry x="200" y="480" width="120" height="30" as="geometry"/>
                </mxCell>
                <mxCell id="kUxSdJ867kgtezRcBDH2-2" value="OBSERVATION" style="text;html=1;align=center;verticalAlign=middle;resizable=0;points=[];autosize=1;strokeColor=none;fillColor=none;" parent="1" vertex="1">
                    <mxGeometry x="80" y="440" width="100" height="20" as="geometry"/>
                </mxCell>
                <mxCell id="kUxSdJ867kgtezRcBDH2-3" value="assunto" style="rounded=0;whiteSpace=wrap;html=1;fillColor=default;" parent="1" vertex="1">
                    <mxGeometry x="320" y="480" width="120" height="30" as="geometry"/>
                </mxCell>
                <mxCell id="kUxSdJ867kgtezRcBDH2-4" value="content" style="rounded=0;whiteSpace=wrap;html=1;fillColor=default;" parent="1" vertex="1">
                    <mxGeometry x="440" y="480" width="120" height="30" as="geometry"/>
                </mxCell>
                <mxCell id="kUxSdJ867kgtezRcBDH2-6" value="info plantio id" style="rounded=0;whiteSpace=wrap;html=1;fillColor=default;" parent="1" vertex="1">
                    <mxGeometry x="80" y="740" width="120" height="30" as="geometry"/>
                </mxCell>
                <mxCell id="kUxSdJ867kgtezRcBDH2-7" value="INFO PLANTIO" style="text;html=1;align=center;verticalAlign=middle;resizable=0;points=[];autosize=1;strokeColor=none;fillColor=none;" parent="1" vertex="1">
                    <mxGeometry x="80" y="700" width="100" height="20" as="geometry"/>
                </mxCell>
                <mxCell id="kUxSdJ867kgtezRcBDH2-8" value="data semeadura" style="rounded=0;whiteSpace=wrap;html=1;fillColor=default;" parent="1" vertex="1">
                    <mxGeometry x="200" y="740" width="120" height="30" as="geometry"/>
                </mxCell>
                <mxCell id="kUxSdJ867kgtezRcBDH2-9" value="data germinação" style="rounded=0;whiteSpace=wrap;html=1;fillColor=default;" parent="1" vertex="1">
                    <mxGeometry x="320" y="740" width="120" height="30" as="geometry"/>
                </mxCell>
                <mxCell id="kUxSdJ867kgtezRcBDH2-10" value="data plantio" style="rounded=0;whiteSpace=wrap;html=1;fillColor=default;" parent="1" vertex="1">
                    <mxGeometry x="440" y="740" width="120" height="30" as="geometry"/>
                </mxCell>
                <mxCell id="kUxSdJ867kgtezRcBDH2-11" value="data fim do plantio" style="rounded=0;whiteSpace=wrap;html=1;fillColor=default;" parent="1" vertex="1">
                    <mxGeometry x="560" y="740" width="121" height="30" as="geometry"/>
                </mxCell>
                <mxCell id="kUxSdJ867kgtezRcBDH2-13" value="PK" style="text;html=1;align=center;verticalAlign=middle;resizable=0;points=[];autosize=1;strokeColor=none;fillColor=none;" parent="1" vertex="1">
                    <mxGeometry x="125" y="720" width="30" height="20" as="geometry"/>
                </mxCell>
                <mxCell id="kUxSdJ867kgtezRcBDH2-14" style="edgeStyle=orthogonalEdgeStyle;rounded=0;orthogonalLoop=1;jettySize=auto;html=1;exitX=0.5;exitY=1;exitDx=0;exitDy=0;entryX=0.5;entryY=1;entryDx=0;entryDy=0;" parent="1" edge="1">
                    <mxGeometry relative="1" as="geometry">
                        <Array as="points">
                            <mxPoint x="140" y="800"/>
                            <mxPoint x="260" y="800"/>
                            <mxPoint x="260" y="800"/>
                        </Array>
                        <mxPoint x="140" y="770" as="sourcePoint"/>
                        <mxPoint x="260.0000000000002" y="770" as="targetPoint"/>
                    </mxGeometry>
                </mxCell>
                <mxCell id="kUxSdJ867kgtezRcBDH2-15" value="" style="endArrow=classic;html=1;rounded=0;entryX=0.5;entryY=1;entryDx=0;entryDy=0;" parent="1" edge="1">
                    <mxGeometry width="50" height="50" relative="1" as="geometry">
                        <mxPoint x="260.0000000000002" y="800" as="sourcePoint"/>
                        <mxPoint x="380.0000000000002" y="770" as="targetPoint"/>
                        <Array as="points">
                            <mxPoint x="380" y="800"/>
                        </Array>
                    </mxGeometry>
                </mxCell>
                <mxCell id="kUxSdJ867kgtezRcBDH2-16" value="" style="endArrow=classic;html=1;rounded=0;entryX=0.5;entryY=1;entryDx=0;entryDy=0;" parent="1" edge="1">
                    <mxGeometry width="50" height="50" relative="1" as="geometry">
                        <mxPoint x="380.0000000000002" y="800" as="sourcePoint"/>
                        <mxPoint x="500.0000000000002" y="770" as="targetPoint"/>
                        <Array as="points">
                            <mxPoint x="500" y="800"/>
                        </Array>
                    </mxGeometry>
                </mxCell>
                <mxCell id="kUxSdJ867kgtezRcBDH2-17" value="" style="endArrow=classic;html=1;rounded=0;entryX=0.5;entryY=1;entryDx=0;entryDy=0;" parent="1" edge="1">
                    <mxGeometry width="50" height="50" relative="1" as="geometry">
                        <mxPoint x="500.0000000000002" y="800" as="sourcePoint"/>
                        <mxPoint x="620.0000000000002" y="770" as="targetPoint"/>
                        <Array as="points">
                            <mxPoint x="620" y="800"/>
                        </Array>
                    </mxGeometry>
                </mxCell>
                <mxCell id="kUxSdJ867kgtezRcBDH2-18" value="CK" style="text;html=1;align=center;verticalAlign=middle;resizable=0;points=[];autosize=1;strokeColor=none;fillColor=none;" parent="1" vertex="1">
                    <mxGeometry x="245" y="1350" width="30" height="20" as="geometry"/>
                </mxCell>
                <mxCell id="xAU2H16cF2yPQkOcHu1T-1" value="event info id" style="rounded=0;whiteSpace=wrap;html=1;fillColor=default;" parent="1" vertex="1">
                    <mxGeometry x="80" y="360" width="120" height="30" as="geometry"/>
                </mxCell>
                <mxCell id="xAU2H16cF2yPQkOcHu1T-2" value="CROP INFO" style="text;html=1;align=center;verticalAlign=middle;resizable=0;points=[];autosize=1;strokeColor=none;fillColor=none;" parent="1" vertex="1">
                    <mxGeometry x="85" y="320" width="80" height="20" as="geometry"/>
                </mxCell>
                <mxCell id="xAU2H16cF2yPQkOcHu1T-6" style="edgeStyle=orthogonalEdgeStyle;rounded=0;orthogonalLoop=1;jettySize=auto;html=1;exitX=0.5;exitY=0;exitDx=0;exitDy=0;entryX=0.5;entryY=0;entryDx=0;entryDy=0;endArrow=none;endFill=0;" parent="1" source="xAU2H16cF2yPQkOcHu1T-3" target="xAU2H16cF2yPQkOcHu1T-4" edge="1">
                    <mxGeometry relative="1" as="geometry">
                        <Array as="points">
                            <mxPoint x="260" y="350"/>
                            <mxPoint x="380" y="350"/>
                        </Array>
                    </mxGeometry>
                </mxCell>
                <mxCell id="xAU2H16cF2yPQkOcHu1T-3" value="event id" style="rounded=0;whiteSpace=wrap;html=1;fillColor=default;" parent="1" vertex="1">
                    <mxGeometry x="200" y="360" width="120" height="30" as="geometry"/>
                </mxCell>
                <mxCell id="xAU2H16cF2yPQkOcHu1T-4" value="context*" style="rounded=0;whiteSpace=wrap;html=1;fillColor=default;" parent="1" vertex="1">
                    <mxGeometry x="320" y="360" width="120" height="30" as="geometry"/>
                </mxCell>
                <mxCell id="xAU2H16cF2yPQkOcHu1T-5" value="PK" style="text;html=1;align=center;verticalAlign=middle;resizable=0;points=[];autosize=1;strokeColor=none;fillColor=none;" parent="1" vertex="1">
                    <mxGeometry x="125" y="340" width="30" height="20" as="geometry"/>
                </mxCell>
                <mxCell id="xAU2H16cF2yPQkOcHu1T-7" value="FK" style="text;html=1;align=center;verticalAlign=middle;resizable=0;points=[];autosize=1;strokeColor=none;fillColor=none;" parent="1" vertex="1">
                    <mxGeometry x="305" y="330" width="30" height="20" as="geometry"/>
                </mxCell>
                <mxCell id="xAU2H16cF2yPQkOcHu1T-8" value="" style="line;strokeWidth=4;align=left;verticalAlign=middle;spacingTop=-1;spacingLeft=3;spacingRight=3;rotatable=0;labelPosition=right;points=[];portConstraint=eastwest;strokeColor=#66FFFF;" parent="1" vertex="1">
                    <mxGeometry x="80" y="530" width="720" height="8" as="geometry"/>
                </mxCell>
                <mxCell id="xAU2H16cF2yPQkOcHu1T-9" value="&lt;font color=&quot;#ffff00&quot;&gt;CROP INFO&lt;/font&gt;: These entities represent informations about a crop, the PK here corresponds to &lt;i&gt;info id&lt;/i&gt; in CROP INFO" style="text;html=1;align=left;verticalAlign=middle;resizable=0;points=[];autosize=1;strokeColor=none;fillColor=none;" parent="1" vertex="1">
                    <mxGeometry x="80" y="540" width="630" height="20" as="geometry"/>
                </mxCell>
                <mxCell id="xAU2H16cF2yPQkOcHu1T-10" value="PK" style="text;html=1;align=center;verticalAlign=middle;resizable=0;points=[];autosize=1;strokeColor=none;fillColor=none;" parent="1" vertex="1">
                    <mxGeometry x="125" y="460" width="30" height="20" as="geometry"/>
                </mxCell>
                <mxCell id="xAU2H16cF2yPQkOcHu1T-11" value="" style="line;strokeWidth=4;fillColor=none;align=left;verticalAlign=middle;spacingTop=-1;spacingLeft=3;spacingRight=3;rotatable=0;labelPosition=right;points=[];portConstraint=eastwest;strokeColor=#66FFFF;" parent="1" vertex="1">
                    <mxGeometry x="80" y="1300" width="720" height="8" as="geometry"/>
                </mxCell>
                <mxCell id="xAU2H16cF2yPQkOcHu1T-13" value="*context is a enum, with the value&amp;nbsp;&lt;br&gt;being the main noun in each CROP INFO&amp;nbsp;&lt;br&gt;specialization table" style="text;html=1;align=left;verticalAlign=middle;resizable=0;points=[];autosize=1;strokeColor=none;fillColor=none;fontColor=#FFFFFF;" parent="1" vertex="1">
                    <mxGeometry x="600" y="290" width="240" height="50" as="geometry"/>
                </mxCell>
                <mxCell id="xAU2H16cF2yPQkOcHu1T-14" value="context: plantio" style="rounded=0;whiteSpace=wrap;html=1;fillColor=default;" parent="1" vertex="1">
                    <mxGeometry x="681" y="740" width="120" height="30" as="geometry"/>
                </mxCell>
                <mxCell id="xAU2H16cF2yPQkOcHu1T-17" value="crop id" style="rounded=0;whiteSpace=wrap;html=1;fillColor=default;" parent="1" vertex="1">
                    <mxGeometry x="440" y="360" width="120" height="30" as="geometry"/>
                </mxCell>
                <mxCell id="xAU2H16cF2yPQkOcHu1T-18" value="FK" style="text;html=1;align=center;verticalAlign=middle;resizable=0;points=[];autosize=1;strokeColor=none;fillColor=none;fontColor=#FFFFFF;" parent="1" vertex="1">
                    <mxGeometry x="485" y="340" width="30" height="20" as="geometry"/>
                </mxCell>
                <mxCell id="xAU2H16cF2yPQkOcHu1T-19" value="" style="endArrow=classic;html=1;rounded=0;entryX=0.5;entryY=1;entryDx=0;entryDy=0;" parent="1" edge="1">
                    <mxGeometry width="50" height="50" relative="1" as="geometry">
                        <mxPoint x="620.0000000000002" y="800" as="sourcePoint"/>
                        <mxPoint x="740.0000000000002" y="770" as="targetPoint"/>
                        <Array as="points">
                            <mxPoint x="740" y="800"/>
                        </Array>
                    </mxGeometry>
                </mxCell>
                <mxCell id="Hhvqk0O0vx8L7JnNIw1e-1" value="&lt;span style=&quot;background-color: rgb(255 , 102 , 102)&quot;&gt;Issues&lt;/span&gt;:" style="text;html=1;align=left;verticalAlign=middle;resizable=0;points=[];autosize=1;strokeColor=none;fillColor=none;" parent="1" vertex="1">
                    <mxGeometry x="600" y="40" width="50" height="20" as="geometry"/>
                </mxCell>
                <mxCell id="U2qBSRBzdBIZbJk-PiYq-1" value="info general id" style="rounded=0;whiteSpace=wrap;html=1;fillColor=default;" parent="1" vertex="1">
                    <mxGeometry x="80" y="620" width="120" height="30" as="geometry"/>
                </mxCell>
                <mxCell id="U2qBSRBzdBIZbJk-PiYq-2" value="INFO GENERAL" style="text;html=1;align=center;verticalAlign=middle;resizable=0;points=[];autosize=1;strokeColor=none;fillColor=none;" parent="1" vertex="1">
                    <mxGeometry x="80" y="580" width="100" height="20" as="geometry"/>
                </mxCell>
                <mxCell id="U2qBSRBzdBIZbJk-PiYq-3" value="context: general" style="rounded=0;whiteSpace=wrap;html=1;fillColor=default;" parent="1" vertex="1">
                    <mxGeometry x="201" y="620" width="120" height="30" as="geometry"/>
                </mxCell>
                <mxCell id="U2qBSRBzdBIZbJk-PiYq-4" value="PK" style="text;html=1;align=center;verticalAlign=middle;resizable=0;points=[];autosize=1;strokeColor=none;fillColor=none;" parent="1" vertex="1">
                    <mxGeometry x="125" y="600" width="30" height="20" as="geometry"/>
                </mxCell>
                <mxCell id="U2qBSRBzdBIZbJk-PiYq-5" style="edgeStyle=orthogonalEdgeStyle;rounded=0;orthogonalLoop=1;jettySize=auto;html=1;exitX=0.5;exitY=1;exitDx=0;exitDy=0;entryX=0.5;entryY=1;entryDx=0;entryDy=0;" parent="1" edge="1">
                    <mxGeometry relative="1" as="geometry">
                        <Array as="points">
                            <mxPoint x="140" y="680"/>
                            <mxPoint x="260" y="680"/>
                            <mxPoint x="260" y="680"/>
                        </Array>
                        <mxPoint x="140" y="650" as="sourcePoint"/>
                        <mxPoint x="260.0000000000001" y="650" as="targetPoint"/>
                    </mxGeometry>
                </mxCell>
                <mxCell id="U2qBSRBzdBIZbJk-PiYq-6" style="edgeStyle=orthogonalEdgeStyle;rounded=0;orthogonalLoop=1;jettySize=auto;html=1;exitX=0.5;exitY=1;exitDx=0;exitDy=0;entryX=0.5;entryY=1;entryDx=0;entryDy=0;" parent="1" edge="1">
                    <mxGeometry relative="1" as="geometry">
                        <Array as="points">
                            <mxPoint x="140" y="420"/>
                            <mxPoint x="260" y="420"/>
                            <mxPoint x="260" y="420"/>
                        </Array>
                        <mxPoint x="140" y="390" as="sourcePoint"/>
                        <mxPoint x="260" y="390" as="targetPoint"/>
                    </mxGeometry>
                </mxCell>
                <mxCell id="U2qBSRBzdBIZbJk-PiYq-7" value="" style="endArrow=classic;html=1;rounded=0;entryX=0.5;entryY=1;entryDx=0;entryDy=0;" parent="1" edge="1">
                    <mxGeometry width="50" height="50" relative="1" as="geometry">
                        <mxPoint x="260" y="420" as="sourcePoint"/>
                        <mxPoint x="380" y="390" as="targetPoint"/>
                        <Array as="points">
                            <mxPoint x="380" y="420"/>
                        </Array>
                    </mxGeometry>
                </mxCell>
                <mxCell id="e5yP7u-5l8_ORH4miGcl-1" value="observation id" style="rounded=0;whiteSpace=wrap;html=1;fillColor=default;" parent="1" vertex="1">
                    <mxGeometry x="80" y="480" width="120" height="30" as="geometry"/>
                </mxCell>
                <mxCell id="e5yP7u-5l8_ORH4miGcl-2" value="FK" style="text;html=1;align=center;verticalAlign=middle;resizable=0;points=[];autosize=1;strokeColor=none;fillColor=none;" parent="1" vertex="1">
                    <mxGeometry x="245" y="460" width="30" height="20" as="geometry"/>
                </mxCell>
                <mxCell id="cXEyWJgtDjGKDQR9Is2u-1" value="occurrence: timestamp" style="rounded=0;whiteSpace=wrap;html=1;fillColor=default;" parent="1" vertex="1">
                    <mxGeometry x="560" y="360" width="120" height="30" as="geometry"/>
                </mxCell>
                <mxCell id="cXEyWJgtDjGKDQR9Is2u-2" value="- refine the crop table" style="text;html=1;align=left;verticalAlign=middle;resizable=0;points=[];autosize=1;strokeColor=none;fillColor=none;" parent="1" vertex="1">
                    <mxGeometry x="601" y="60" width="130" height="20" as="geometry"/>
                </mxCell>
            </root>
        </mxGraphModel>
    </diagram>
    <diagram id="rEqpQpdP4hvj0GGlYkJ3" name="UML">
        <mxGraphModel dx="1608" dy="491" grid="1" gridSize="10" guides="1" tooltips="1" connect="1" arrows="1" fold="1" page="1" pageScale="1" pageWidth="827" pageHeight="1169" math="0" shadow="0">
            <root>
                <mxCell id="iuyRWnqCkLdYs4P9Sevu-0"/>
                <mxCell id="iuyRWnqCkLdYs4P9Sevu-1" parent="iuyRWnqCkLdYs4P9Sevu-0"/>
                <mxCell id="zSH5JF8Hq4eFww5K1a5d-0" value="CROP" style="swimlane;fontStyle=0;childLayout=stackLayout;horizontal=1;startSize=26;fillColor=default;horizontalStack=0;resizeParent=1;resizeParentMax=0;resizeLast=0;collapsible=1;marginBottom=0;" parent="iuyRWnqCkLdYs4P9Sevu-1" vertex="1">
                    <mxGeometry x="90" y="163" width="140" height="104" as="geometry">
                        <mxRectangle x="90" y="150" width="90" height="26" as="alternateBounds"/>
                    </mxGeometry>
                </mxCell>
                <mxCell id="zSH5JF8Hq4eFww5K1a5d-1" value="identificador: long" style="text;strokeColor=none;fillColor=default;align=left;verticalAlign=top;spacingLeft=4;spacingRight=4;overflow=hidden;rotatable=0;points=[[0,0.5],[1,0.5]];portConstraint=eastwest;" parent="zSH5JF8Hq4eFww5K1a5d-0" vertex="1">
                    <mxGeometry y="26" width="140" height="26" as="geometry"/>
                </mxCell>
                <mxCell id="zSH5JF8Hq4eFww5K1a5d-2" value="area planted: double" style="text;strokeColor=none;fillColor=default;align=left;verticalAlign=top;spacingLeft=4;spacingRight=4;overflow=hidden;rotatable=0;points=[[0,0.5],[1,0.5]];portConstraint=eastwest;" parent="zSH5JF8Hq4eFww5K1a5d-0" vertex="1">
                    <mxGeometry y="52" width="140" height="26" as="geometry"/>
                </mxCell>
                <mxCell id="zSH5JF8Hq4eFww5K1a5d-3" value="number of plants: int" style="text;strokeColor=none;fillColor=default;align=left;verticalAlign=top;spacingLeft=4;spacingRight=4;overflow=hidden;rotatable=0;points=[[0,0.5],[1,0.5]];portConstraint=eastwest;" parent="zSH5JF8Hq4eFww5K1a5d-0" vertex="1">
                    <mxGeometry y="78" width="140" height="26" as="geometry"/>
                </mxCell>
                <mxCell id="zSH5JF8Hq4eFww5K1a5d-4" value="PLANT" style="swimlane;fontStyle=0;childLayout=stackLayout;horizontal=1;startSize=26;fillColor=default;horizontalStack=0;resizeParent=1;resizeParentMax=0;resizeLast=0;collapsible=1;marginBottom=0;dropTarget=1;swimlaneHead=1;swimlaneBody=1;connectable=1;fixDash=0;autosize=0;container=0;movableLabel=0;treeMoving=0;comic=0;pointerEvents=1;overflow=visible;strokeOpacity=100;fillOpacity=100;arcSize=15;" parent="iuyRWnqCkLdYs4P9Sevu-1" vertex="1">
                    <mxGeometry x="344" y="176" width="140" height="78" as="geometry">
                        <mxRectangle x="330" y="150" width="70" height="26" as="alternateBounds"/>
                    </mxGeometry>
                </mxCell>
                <mxCell id="zSH5JF8Hq4eFww5K1a5d-5" value="name: String" style="text;strokeColor=none;fillColor=default;align=left;verticalAlign=top;spacingLeft=4;spacingRight=4;overflow=hidden;rotatable=0;points=[[0,0.5],[1,0.5]];portConstraint=eastwest;" parent="zSH5JF8Hq4eFww5K1a5d-4" vertex="1">
                    <mxGeometry y="26" width="140" height="26" as="geometry"/>
                </mxCell>
                <mxCell id="zSH5JF8Hq4eFww5K1a5d-6" value="scientific name: String" style="text;strokeColor=none;fillColor=default;align=left;verticalAlign=top;spacingLeft=4;spacingRight=4;overflow=hidden;rotatable=0;points=[[0,0.5],[1,0.5]];portConstraint=eastwest;" parent="zSH5JF8Hq4eFww5K1a5d-4" vertex="1">
                    <mxGeometry y="52" width="140" height="26" as="geometry"/>
                </mxCell>
                <mxCell id="zSH5JF8Hq4eFww5K1a5d-7" value="" style="endArrow=none;html=1;endSize=12;startArrow=diamondThin;startSize=14;startFill=1;edgeStyle=orthogonalEdgeStyle;align=left;verticalAlign=bottom;rounded=0;exitX=1;exitY=0.5;exitDx=0;exitDy=0;entryX=0;entryY=0.5;entryDx=0;entryDy=0;endFill=0;" parent="iuyRWnqCkLdYs4P9Sevu-1" source="zSH5JF8Hq4eFww5K1a5d-0" target="zSH5JF8Hq4eFww5K1a5d-5" edge="1">
                    <mxGeometry x="-0.8182" y="-9" relative="1" as="geometry">
                        <mxPoint x="210" y="189" as="sourcePoint"/>
                        <mxPoint x="320" y="189" as="targetPoint"/>
                        <mxPoint as="offset"/>
                    </mxGeometry>
                </mxCell>
                <mxCell id="zSH5JF8Hq4eFww5K1a5d-8" style="edgeStyle=orthogonalEdgeStyle;rounded=0;orthogonalLoop=1;jettySize=auto;html=1;exitX=0.5;exitY=0;exitDx=0;exitDy=0;entryX=0.5;entryY=1;entryDx=0;entryDy=0;startSize=26;endArrow=diamondThin;endFill=1;strokeWidth=1;targetPerimeterSpacing=0;sourcePerimeterSpacing=0;endSize=13;" parent="iuyRWnqCkLdYs4P9Sevu-1" source="zSH5JF8Hq4eFww5K1a5d-9" target="zSH5JF8Hq4eFww5K1a5d-0" edge="1">
                    <mxGeometry relative="1" as="geometry"/>
                </mxCell>
                <mxCell id="zSH5JF8Hq4eFww5K1a5d-9" value="&lt;&lt;Abstract&gt;&gt;&#10;CROP INFO" style="swimlane;fontStyle=2;childLayout=stackLayout;horizontal=1;startSize=50;fillColor=default;horizontalStack=0;resizeParent=1;resizeParentMax=0;resizeLast=0;collapsible=1;marginBottom=0;dropTarget=1;swimlaneHead=1;swimlaneBody=1;connectable=1;fixDash=0;autosize=0;container=0;movableLabel=0;treeMoving=0;comic=0;pointerEvents=1;overflow=visible;strokeOpacity=100;fillOpacity=100;arcSize=15;resizeHeight=0;" parent="iuyRWnqCkLdYs4P9Sevu-1" vertex="1">
                    <mxGeometry x="95" y="330" width="130" height="76" as="geometry">
                        <mxRectangle x="95" y="330" width="70" height="26" as="alternateBounds"/>
                    </mxGeometry>
                </mxCell>
                <mxCell id="zSH5JF8Hq4eFww5K1a5d-10" value="data ocorrencia" style="text;strokeColor=none;fillColor=default;align=left;verticalAlign=top;spacingLeft=4;spacingRight=4;overflow=hidden;rotatable=0;points=[[0,0.5],[1,0.5]];portConstraint=eastwest;" parent="zSH5JF8Hq4eFww5K1a5d-9" vertex="1">
                    <mxGeometry y="50" width="130" height="26" as="geometry"/>
                </mxCell>
                <mxCell id="zSH5JF8Hq4eFww5K1a5d-11" value="OBSERVAÇÃO" style="swimlane;fontStyle=0;childLayout=stackLayout;horizontal=1;startSize=26;fillColor=default;horizontalStack=0;resizeParent=1;resizeParentMax=0;resizeLast=0;collapsible=1;marginBottom=0;dropTarget=1;swimlaneHead=1;swimlaneBody=1;connectable=1;fixDash=0;autosize=0;container=0;movableLabel=0;treeMoving=0;comic=0;pointerEvents=1;overflow=visible;strokeOpacity=100;fillOpacity=100;arcSize=15;" parent="iuyRWnqCkLdYs4P9Sevu-1" vertex="1">
                    <mxGeometry x="344" y="329" width="140" height="78" as="geometry">
                        <mxRectangle x="344" y="329" width="70" height="26" as="alternateBounds"/>
                    </mxGeometry>
                </mxCell>
                <mxCell id="zSH5JF8Hq4eFww5K1a5d-12" value="assunto: String" style="text;strokeColor=none;fillColor=default;align=left;verticalAlign=top;spacingLeft=4;spacingRight=4;overflow=hidden;rotatable=0;points=[[0,0.5],[1,0.5]];portConstraint=eastwest;" parent="zSH5JF8Hq4eFww5K1a5d-11" vertex="1">
                    <mxGeometry y="26" width="140" height="26" as="geometry"/>
                </mxCell>
                <mxCell id="zSH5JF8Hq4eFww5K1a5d-13" value="conteúdo: String" style="text;strokeColor=none;fillColor=default;align=left;verticalAlign=top;spacingLeft=4;spacingRight=4;overflow=hidden;rotatable=0;points=[[0,0.5],[1,0.5]];portConstraint=eastwest;" parent="zSH5JF8Hq4eFww5K1a5d-11" vertex="1">
                    <mxGeometry y="52" width="140" height="26" as="geometry"/>
                </mxCell>
                <mxCell id="zSH5JF8Hq4eFww5K1a5d-14" style="edgeStyle=orthogonalEdgeStyle;rounded=0;orthogonalLoop=1;jettySize=auto;html=1;exitX=1;exitY=0.5;exitDx=0;exitDy=0;entryX=0;entryY=0.5;entryDx=0;entryDy=0;endArrow=none;endFill=0;startSize=14;endSize=11;sourcePerimeterSpacing=0;targetPerimeterSpacing=0;strokeWidth=1;startArrow=diamondThin;startFill=1;jumpSize=6;" parent="iuyRWnqCkLdYs4P9Sevu-1" source="zSH5JF8Hq4eFww5K1a5d-9" target="zSH5JF8Hq4eFww5K1a5d-12" edge="1">
                    <mxGeometry relative="1" as="geometry"/>
                </mxCell>
                <mxCell id="zSH5JF8Hq4eFww5K1a5d-15" style="edgeStyle=orthogonalEdgeStyle;rounded=0;jumpSize=6;orthogonalLoop=1;jettySize=auto;html=1;exitX=0;exitY=0.5;exitDx=0;exitDy=0;entryX=0.5;entryY=1;entryDx=0;entryDy=0;startArrow=none;startFill=0;endArrow=block;endFill=0;startSize=14;endSize=15;sourcePerimeterSpacing=0;targetPerimeterSpacing=0;strokeWidth=1;" parent="iuyRWnqCkLdYs4P9Sevu-1" source="zSH5JF8Hq4eFww5K1a5d-16" target="zSH5JF8Hq4eFww5K1a5d-9" edge="1">
                    <mxGeometry relative="1" as="geometry"/>
                </mxCell>
                <mxCell id="zSH5JF8Hq4eFww5K1a5d-16" value="PLANTIO" style="swimlane;fontStyle=0;childLayout=stackLayout;horizontal=1;startSize=26;fillColor=default;horizontalStack=0;resizeParent=1;resizeParentMax=0;resizeLast=0;collapsible=1;marginBottom=0;dropTarget=1;swimlaneHead=1;swimlaneBody=1;connectable=1;fixDash=0;autosize=0;container=0;movableLabel=0;treeMoving=0;comic=0;pointerEvents=1;overflow=visible;strokeOpacity=100;fillOpacity=100;arcSize=15;" parent="iuyRWnqCkLdYs4P9Sevu-1" vertex="1">
                    <mxGeometry x="225" y="440" width="140" height="52" as="geometry">
                        <mxRectangle x="330" y="150" width="70" height="26" as="alternateBounds"/>
                    </mxGeometry>
                </mxCell>
                <mxCell id="zSH5JF8Hq4eFww5K1a5d-17" value="" style="text;strokeColor=none;fillColor=default;align=left;verticalAlign=top;spacingLeft=4;spacingRight=4;overflow=hidden;rotatable=0;points=[[0,0.5],[1,0.5]];portConstraint=eastwest;" parent="zSH5JF8Hq4eFww5K1a5d-16" vertex="1">
                    <mxGeometry y="26" width="140" height="26" as="geometry"/>
                </mxCell>
                <mxCell id="zSH5JF8Hq4eFww5K1a5d-18" style="edgeStyle=orthogonalEdgeStyle;rounded=0;jumpSize=6;orthogonalLoop=1;jettySize=auto;html=1;exitX=0;exitY=0.5;exitDx=0;exitDy=0;startArrow=none;startFill=0;endArrow=none;endFill=0;startSize=14;endSize=15;sourcePerimeterSpacing=0;targetPerimeterSpacing=0;strokeWidth=1;" parent="iuyRWnqCkLdYs4P9Sevu-1" source="zSH5JF8Hq4eFww5K1a5d-19" edge="1">
                    <mxGeometry relative="1" as="geometry">
                        <mxPoint x="160" y="463" as="targetPoint"/>
                    </mxGeometry>
                </mxCell>
                <mxCell id="zSH5JF8Hq4eFww5K1a5d-19" value="SEMEADURA" style="swimlane;fontStyle=0;childLayout=stackLayout;horizontal=1;startSize=26;fillColor=default;horizontalStack=0;resizeParent=1;resizeParentMax=0;resizeLast=0;collapsible=1;marginBottom=0;dropTarget=1;swimlaneHead=1;swimlaneBody=1;connectable=1;fixDash=0;autosize=0;container=0;movableLabel=0;treeMoving=0;comic=0;pointerEvents=1;overflow=visible;strokeOpacity=100;fillOpacity=100;arcSize=15;" parent="iuyRWnqCkLdYs4P9Sevu-1" vertex="1">
                    <mxGeometry x="225" y="517.5" width="140" height="52" as="geometry">
                        <mxRectangle x="330" y="150" width="70" height="26" as="alternateBounds"/>
                    </mxGeometry>
                </mxCell>
                <mxCell id="zSH5JF8Hq4eFww5K1a5d-20" value="" style="text;strokeColor=none;fillColor=default;align=left;verticalAlign=top;spacingLeft=4;spacingRight=4;overflow=hidden;rotatable=0;points=[[0,0.5],[1,0.5]];portConstraint=eastwest;" parent="zSH5JF8Hq4eFww5K1a5d-19" vertex="1">
                    <mxGeometry y="26" width="140" height="26" as="geometry"/>
                </mxCell>
                <mxCell id="zSH5JF8Hq4eFww5K1a5d-21" style="edgeStyle=orthogonalEdgeStyle;rounded=0;jumpSize=6;orthogonalLoop=1;jettySize=auto;html=1;exitX=0;exitY=0.5;exitDx=0;exitDy=0;startArrow=none;startFill=0;endArrow=none;endFill=0;startSize=14;endSize=15;sourcePerimeterSpacing=0;targetPerimeterSpacing=0;strokeWidth=1;" parent="iuyRWnqCkLdYs4P9Sevu-1" source="zSH5JF8Hq4eFww5K1a5d-22" edge="1">
                    <mxGeometry relative="1" as="geometry">
                        <mxPoint x="160" y="543" as="targetPoint"/>
                    </mxGeometry>
                </mxCell>
                <mxCell id="zSH5JF8Hq4eFww5K1a5d-22" value="GERMINAÇÃO" style="swimlane;fontStyle=0;childLayout=stackLayout;horizontal=1;startSize=26;fillColor=default;horizontalStack=0;resizeParent=1;resizeParentMax=0;resizeLast=0;collapsible=1;marginBottom=0;dropTarget=1;swimlaneHead=1;swimlaneBody=1;connectable=1;fixDash=0;autosize=0;container=0;movableLabel=0;treeMoving=0;comic=0;pointerEvents=1;overflow=visible;strokeOpacity=100;fillOpacity=100;arcSize=15;" parent="iuyRWnqCkLdYs4P9Sevu-1" vertex="1">
                    <mxGeometry x="225" y="593" width="140" height="52" as="geometry">
                        <mxRectangle x="330" y="150" width="70" height="26" as="alternateBounds"/>
                    </mxGeometry>
                </mxCell>
                <mxCell id="zSH5JF8Hq4eFww5K1a5d-23" value="tempo: duration" style="text;strokeColor=none;fillColor=default;align=left;verticalAlign=top;spacingLeft=4;spacingRight=4;overflow=hidden;rotatable=0;points=[[0,0.5],[1,0.5]];portConstraint=eastwest;" parent="zSH5JF8Hq4eFww5K1a5d-22" vertex="1">
                    <mxGeometry y="26" width="140" height="26" as="geometry"/>
                </mxCell>
                <mxCell id="zSH5JF8Hq4eFww5K1a5d-24" style="edgeStyle=orthogonalEdgeStyle;rounded=0;jumpSize=6;orthogonalLoop=1;jettySize=auto;html=1;exitX=0;exitY=0.5;exitDx=0;exitDy=0;startArrow=none;startFill=0;endArrow=none;endFill=0;startSize=14;endSize=15;sourcePerimeterSpacing=0;targetPerimeterSpacing=0;strokeWidth=1;" parent="iuyRWnqCkLdYs4P9Sevu-1" source="zSH5JF8Hq4eFww5K1a5d-25" edge="1">
                    <mxGeometry relative="1" as="geometry">
                        <mxPoint x="160" y="613" as="targetPoint"/>
                    </mxGeometry>
                </mxCell>
                <mxCell id="zSH5JF8Hq4eFww5K1a5d-25" value="COLHEITA" style="swimlane;fontStyle=0;childLayout=stackLayout;horizontal=1;startSize=26;fillColor=default;horizontalStack=0;resizeParent=1;resizeParentMax=0;resizeLast=0;collapsible=1;marginBottom=0;dropTarget=1;swimlaneHead=1;swimlaneBody=1;connectable=1;fixDash=0;autosize=0;container=0;movableLabel=0;treeMoving=0;comic=0;pointerEvents=1;overflow=visible;strokeOpacity=100;fillOpacity=100;arcSize=15;" parent="iuyRWnqCkLdYs4P9Sevu-1" vertex="1">
                    <mxGeometry x="225" y="673" width="165" height="104" as="geometry">
                        <mxRectangle x="330" y="150" width="70" height="26" as="alternateBounds"/>
                    </mxGeometry>
                </mxCell>
                <mxCell id="zSH5JF8Hq4eFww5K1a5d-26" value="area colhida: double" style="text;strokeColor=none;fillColor=default;align=left;verticalAlign=top;spacingLeft=4;spacingRight=4;overflow=hidden;rotatable=0;points=[[0,0.5],[1,0.5]];portConstraint=eastwest;" parent="zSH5JF8Hq4eFww5K1a5d-25" vertex="1">
                    <mxGeometry y="26" width="165" height="26" as="geometry"/>
                </mxCell>
                <mxCell id="zSH5JF8Hq4eFww5K1a5d-27" value="unidade produção: enum" style="text;strokeColor=none;fillColor=default;align=left;verticalAlign=top;spacingLeft=4;spacingRight=4;overflow=hidden;rotatable=0;points=[[0,0.5],[1,0.5]];portConstraint=eastwest;" parent="zSH5JF8Hq4eFww5K1a5d-25" vertex="1">
                    <mxGeometry y="52" width="165" height="26" as="geometry"/>
                </mxCell>
                <mxCell id="zSH5JF8Hq4eFww5K1a5d-28" value="produção: double" style="text;strokeColor=none;fillColor=default;align=left;verticalAlign=top;spacingLeft=4;spacingRight=4;overflow=hidden;rotatable=0;points=[[0,0.5],[1,0.5]];portConstraint=eastwest;" parent="zSH5JF8Hq4eFww5K1a5d-25" vertex="1">
                    <mxGeometry y="78" width="165" height="26" as="geometry"/>
                </mxCell>
                <mxCell id="zSH5JF8Hq4eFww5K1a5d-29" value="*" style="text;html=1;align=center;verticalAlign=middle;resizable=0;points=[];autosize=1;strokeColor=none;fillColor=none;" parent="iuyRWnqCkLdYs4P9Sevu-1" vertex="1">
                    <mxGeometry x="160" y="310" width="20" height="20" as="geometry"/>
                </mxCell>
                <mxCell id="Z7Jt2OHU4boDIRW9mir4-0" value="*" style="text;html=1;align=center;verticalAlign=middle;resizable=0;points=[];autosize=1;strokeColor=none;fillColor=none;" parent="iuyRWnqCkLdYs4P9Sevu-1" vertex="1">
                    <mxGeometry x="324" y="350" width="20" height="20" as="geometry"/>
                </mxCell>
                <mxCell id="07ZrmyFaW77MOSLZKSHX-4" style="edgeStyle=elbowEdgeStyle;html=1;exitX=1;exitY=0.5;exitDx=0;exitDy=0;endArrow=none;endFill=0;rounded=0;" edge="1" parent="iuyRWnqCkLdYs4P9Sevu-1" source="07ZrmyFaW77MOSLZKSHX-0">
                    <mxGeometry relative="1" as="geometry">
                        <mxPoint x="160" y="723" as="targetPoint"/>
                        <Array as="points">
                            <mxPoint x="160" y="743"/>
                        </Array>
                    </mxGeometry>
                </mxCell>
                <mxCell id="07ZrmyFaW77MOSLZKSHX-0" value="FERTILIZAÇÃO" style="swimlane;fontStyle=0;childLayout=stackLayout;horizontal=1;startSize=26;fillColor=default;horizontalStack=0;resizeParent=1;resizeParentMax=0;resizeLast=0;collapsible=1;marginBottom=0;dropTarget=1;swimlaneHead=1;swimlaneBody=1;connectable=1;fixDash=0;autosize=0;container=0;movableLabel=0;treeMoving=0;comic=0;pointerEvents=1;overflow=visible;strokeOpacity=100;fillOpacity=100;arcSize=15;" vertex="1" parent="iuyRWnqCkLdYs4P9Sevu-1">
                    <mxGeometry x="-75" y="673" width="165" height="52" as="geometry">
                        <mxRectangle x="330" y="150" width="70" height="26" as="alternateBounds"/>
                    </mxGeometry>
                </mxCell>
                <mxCell id="07ZrmyFaW77MOSLZKSHX-1" value="data fertilização: date" style="text;strokeColor=none;fillColor=default;align=left;verticalAlign=top;spacingLeft=4;spacingRight=4;overflow=hidden;rotatable=0;points=[[0,0.5],[1,0.5]];portConstraint=eastwest;" vertex="1" parent="07ZrmyFaW77MOSLZKSHX-0">
                    <mxGeometry y="26" width="165" height="26" as="geometry"/>
                </mxCell>
                <mxCell id="tebBWoCsBgtclmS2RudW-2" style="edgeStyle=elbowEdgeStyle;rounded=0;html=1;exitX=0.5;exitY=0;exitDx=0;exitDy=0;entryX=0.5;entryY=1;entryDx=0;entryDy=0;endArrow=diamondThin;endFill=1;endSize=13;" edge="1" parent="iuyRWnqCkLdYs4P9Sevu-1" source="tebBWoCsBgtclmS2RudW-0" target="07ZrmyFaW77MOSLZKSHX-0">
                    <mxGeometry relative="1" as="geometry"/>
                </mxCell>
                <mxCell id="tebBWoCsBgtclmS2RudW-0" value="FERTILIZANTE UTILIZADO" style="swimlane;fontStyle=0;childLayout=stackLayout;horizontal=1;startSize=26;fillColor=default;horizontalStack=0;resizeParent=1;resizeParentMax=0;resizeLast=0;collapsible=1;marginBottom=0;dropTarget=1;swimlaneHead=1;swimlaneBody=1;connectable=1;fixDash=0;autosize=0;container=0;movableLabel=0;treeMoving=0;comic=0;pointerEvents=1;overflow=visible;strokeOpacity=100;fillOpacity=100;arcSize=15;" vertex="1" parent="iuyRWnqCkLdYs4P9Sevu-1">
                    <mxGeometry x="-90" y="773" width="195" height="104" as="geometry">
                        <mxRectangle x="330" y="150" width="70" height="26" as="alternateBounds"/>
                    </mxGeometry>
                </mxCell>
                <mxCell id="tebBWoCsBgtclmS2RudW-1" value="quantidade utilizada: double" style="text;strokeColor=none;fillColor=default;align=left;verticalAlign=top;spacingLeft=4;spacingRight=4;overflow=hidden;rotatable=0;points=[[0,0.5],[1,0.5]];portConstraint=eastwest;" vertex="1" parent="tebBWoCsBgtclmS2RudW-0">
                    <mxGeometry y="26" width="195" height="26" as="geometry"/>
                </mxCell>
                <mxCell id="fbB2-TwveDz-YAW02h_N-5" value="aplicadoEm: double" style="text;strokeColor=none;fillColor=default;align=left;verticalAlign=top;spacingLeft=4;spacingRight=4;overflow=hidden;rotatable=0;points=[[0,0.5],[1,0.5]];portConstraint=eastwest;" vertex="1" parent="tebBWoCsBgtclmS2RudW-0">
                    <mxGeometry y="52" width="195" height="26" as="geometry"/>
                </mxCell>
                <mxCell id="fbB2-TwveDz-YAW02h_N-6" value="unidade fertilizada" style="text;strokeColor=none;fillColor=default;align=left;verticalAlign=top;spacingLeft=4;spacingRight=4;overflow=hidden;rotatable=0;points=[[0,0.5],[1,0.5]];portConstraint=eastwest;" vertex="1" parent="tebBWoCsBgtclmS2RudW-0">
                    <mxGeometry y="78" width="195" height="26" as="geometry"/>
                </mxCell>
                <mxCell id="fbB2-TwveDz-YAW02h_N-3" style="edgeStyle=elbowEdgeStyle;rounded=0;html=1;exitX=0.5;exitY=0;exitDx=0;exitDy=0;entryX=0.5;entryY=1;entryDx=0;entryDy=0;endArrow=diamondThin;endFill=1;endSize=13;" edge="1" parent="iuyRWnqCkLdYs4P9Sevu-1" source="fbB2-TwveDz-YAW02h_N-0" target="tebBWoCsBgtclmS2RudW-0">
                    <mxGeometry relative="1" as="geometry"/>
                </mxCell>
                <mxCell id="fbB2-TwveDz-YAW02h_N-0" value="FERTILIZANTE" style="swimlane;fontStyle=0;childLayout=stackLayout;horizontal=1;startSize=26;fillColor=default;horizontalStack=0;resizeParent=1;resizeParentMax=0;resizeLast=0;collapsible=1;marginBottom=0;dropTarget=1;swimlaneHead=1;swimlaneBody=1;connectable=1;fixDash=0;autosize=0;container=0;movableLabel=0;treeMoving=0;comic=0;pointerEvents=1;overflow=visible;strokeOpacity=100;fillOpacity=100;arcSize=15;" vertex="1" parent="iuyRWnqCkLdYs4P9Sevu-1">
                    <mxGeometry x="-75" y="923" width="165" height="78" as="geometry">
                        <mxRectangle x="330" y="150" width="70" height="26" as="alternateBounds"/>
                    </mxGeometry>
                </mxCell>
                <mxCell id="fbB2-TwveDz-YAW02h_N-1" value="name: String" style="text;strokeColor=none;fillColor=default;align=left;verticalAlign=top;spacingLeft=4;spacingRight=4;overflow=hidden;rotatable=0;points=[[0,0.5],[1,0.5]];portConstraint=eastwest;" vertex="1" parent="fbB2-TwveDz-YAW02h_N-0">
                    <mxGeometry y="26" width="165" height="26" as="geometry"/>
                </mxCell>
                <mxCell id="fbB2-TwveDz-YAW02h_N-2" value="description: String" style="text;strokeColor=none;fillColor=default;align=left;verticalAlign=top;spacingLeft=4;spacingRight=4;overflow=hidden;rotatable=0;points=[[0,0.5],[1,0.5]];portConstraint=eastwest;" vertex="1" parent="fbB2-TwveDz-YAW02h_N-0">
                    <mxGeometry y="52" width="165" height="26" as="geometry"/>
                </mxCell>
                <mxCell id="fbB2-TwveDz-YAW02h_N-4" value="*" style="text;html=1;align=center;verticalAlign=middle;resizable=0;points=[];autosize=1;strokeColor=none;fillColor=none;" vertex="1" parent="iuyRWnqCkLdYs4P9Sevu-1">
                    <mxGeometry x="10" y="753" width="20" height="20" as="geometry"/>
                </mxCell>
                <mxCell id="fbB2-TwveDz-YAW02h_N-17" style="edgeStyle=elbowEdgeStyle;rounded=0;html=1;exitX=1;exitY=0.5;exitDx=0;exitDy=0;entryX=0;entryY=0.5;entryDx=0;entryDy=0;endArrow=none;endFill=0;endSize=13;" edge="1" parent="iuyRWnqCkLdYs4P9Sevu-1" source="fbB2-TwveDz-YAW02h_N-14" target="fbB2-TwveDz-YAW02h_N-6">
                    <mxGeometry relative="1" as="geometry"/>
                </mxCell>
                <mxCell id="fbB2-TwveDz-YAW02h_N-14" value="&lt;&lt;Enum&gt;&gt;&#10;UNIDADE FERTILIZADA" style="swimlane;fontStyle=0;childLayout=stackLayout;horizontal=1;startSize=50;fillColor=default;horizontalStack=0;resizeParent=1;resizeParentMax=0;resizeLast=0;collapsible=1;marginBottom=0;dropTarget=1;swimlaneHead=1;swimlaneBody=1;connectable=1;fixDash=0;autosize=0;container=0;movableLabel=0;treeMoving=0;comic=0;pointerEvents=1;overflow=visible;strokeOpacity=100;fillOpacity=100;arcSize=15;resizeHeight=0;" vertex="1" parent="iuyRWnqCkLdYs4P9Sevu-1">
                    <mxGeometry x="-300" y="813" width="160" height="102" as="geometry">
                        <mxRectangle x="95" y="330" width="70" height="26" as="alternateBounds"/>
                    </mxGeometry>
                </mxCell>
                <mxCell id="fbB2-TwveDz-YAW02h_N-15" value="metro quadarado" style="text;strokeColor=none;fillColor=default;align=left;verticalAlign=top;spacingLeft=4;spacingRight=4;overflow=hidden;rotatable=0;points=[[0,0.5],[1,0.5]];portConstraint=eastwest;" vertex="1" parent="fbB2-TwveDz-YAW02h_N-14">
                    <mxGeometry y="50" width="160" height="26" as="geometry"/>
                </mxCell>
                <mxCell id="fbB2-TwveDz-YAW02h_N-16" value="planta" style="text;strokeColor=none;fillColor=default;align=left;verticalAlign=top;spacingLeft=4;spacingRight=4;overflow=hidden;rotatable=0;points=[[0,0.5],[1,0.5]];portConstraint=eastwest;" vertex="1" parent="fbB2-TwveDz-YAW02h_N-14">
                    <mxGeometry y="76" width="160" height="26" as="geometry"/>
                </mxCell>
            </root>
        </mxGraphModel>
    </diagram>
    <diagram id="uN5uBH4JK0V3HxvZ45QA" name="ER">
        <mxGraphModel dx="2262" dy="1515" grid="1" gridSize="10" guides="1" tooltips="1" connect="1" arrows="1" fold="1" page="1" pageScale="1" pageWidth="1169" pageHeight="827" math="0" shadow="0">
            <root>
                <mxCell id="QIzxBCn8zsCFtVh6Vq-W-0"/>
                <mxCell id="QIzxBCn8zsCFtVh6Vq-W-1" parent="QIzxBCn8zsCFtVh6Vq-W-0"/>
                <mxCell id="QIzxBCn8zsCFtVh6Vq-W-4" value="Plant" style="shape=table;startSize=30;container=1;collapsible=1;childLayout=tableLayout;fixedRows=1;rowLines=0;fontStyle=1;align=center;resizeLast=1;labelBackgroundColor=none;fillColor=default;" parent="QIzxBCn8zsCFtVh6Vq-W-1" vertex="1">
                    <mxGeometry x="785" y="564" width="180" height="130" as="geometry"/>
                </mxCell>
                <mxCell id="QIzxBCn8zsCFtVh6Vq-W-5" value="" style="shape=partialRectangle;collapsible=0;dropTarget=0;pointerEvents=0;fillColor=default;top=0;left=0;bottom=1;right=0;points=[[0,0.5],[1,0.5]];portConstraint=eastwest;labelBackgroundColor=none;" parent="QIzxBCn8zsCFtVh6Vq-W-4" vertex="1">
                    <mxGeometry y="30" width="180" height="30" as="geometry"/>
                </mxCell>
                <mxCell id="QIzxBCn8zsCFtVh6Vq-W-6" value="PK" style="shape=partialRectangle;connectable=0;fillColor=default;top=0;left=0;bottom=0;right=0;fontStyle=1;overflow=hidden;labelBackgroundColor=none;" parent="QIzxBCn8zsCFtVh6Vq-W-5" vertex="1">
                    <mxGeometry width="30" height="30" as="geometry">
                        <mxRectangle width="30" height="30" as="alternateBounds"/>
                    </mxGeometry>
                </mxCell>
                <mxCell id="QIzxBCn8zsCFtVh6Vq-W-7" value="plant id" style="shape=partialRectangle;connectable=0;fillColor=default;top=0;left=0;bottom=0;right=0;align=left;spacingLeft=6;fontStyle=5;overflow=hidden;labelBackgroundColor=none;" parent="QIzxBCn8zsCFtVh6Vq-W-5" vertex="1">
                    <mxGeometry x="30" width="150" height="30" as="geometry">
                        <mxRectangle width="150" height="30" as="alternateBounds"/>
                    </mxGeometry>
                </mxCell>
                <mxCell id="QIzxBCn8zsCFtVh6Vq-W-8" value="" style="shape=partialRectangle;collapsible=0;dropTarget=0;pointerEvents=0;fillColor=default;top=0;left=0;bottom=0;right=0;points=[[0,0.5],[1,0.5]];portConstraint=eastwest;labelBackgroundColor=none;" parent="QIzxBCn8zsCFtVh6Vq-W-4" vertex="1">
                    <mxGeometry y="60" width="180" height="30" as="geometry"/>
                </mxCell>
                <mxCell id="QIzxBCn8zsCFtVh6Vq-W-9" value="" style="shape=partialRectangle;connectable=0;fillColor=default;top=0;left=0;bottom=0;right=0;editable=1;overflow=hidden;labelBackgroundColor=none;" parent="QIzxBCn8zsCFtVh6Vq-W-8" vertex="1">
                    <mxGeometry width="30" height="30" as="geometry">
                        <mxRectangle width="30" height="30" as="alternateBounds"/>
                    </mxGeometry>
                </mxCell>
                <mxCell id="QIzxBCn8zsCFtVh6Vq-W-10" value="scientific name UNIQUE" style="shape=partialRectangle;connectable=0;fillColor=default;top=0;left=0;bottom=0;right=0;align=left;spacingLeft=6;overflow=hidden;labelBackgroundColor=none;" parent="QIzxBCn8zsCFtVh6Vq-W-8" vertex="1">
                    <mxGeometry x="30" width="150" height="30" as="geometry">
                        <mxRectangle width="150" height="30" as="alternateBounds"/>
                    </mxGeometry>
                </mxCell>
                <mxCell id="QIzxBCn8zsCFtVh6Vq-W-11" value="" style="shape=partialRectangle;collapsible=0;dropTarget=0;pointerEvents=0;fillColor=default;top=0;left=0;bottom=0;right=0;points=[[0,0.5],[1,0.5]];portConstraint=eastwest;labelBackgroundColor=none;" parent="QIzxBCn8zsCFtVh6Vq-W-4" vertex="1">
                    <mxGeometry y="90" width="180" height="30" as="geometry"/>
                </mxCell>
                <mxCell id="QIzxBCn8zsCFtVh6Vq-W-12" value="" style="shape=partialRectangle;connectable=0;fillColor=default;top=0;left=0;bottom=0;right=0;editable=1;overflow=hidden;labelBackgroundColor=none;" parent="QIzxBCn8zsCFtVh6Vq-W-11" vertex="1">
                    <mxGeometry width="30" height="30" as="geometry">
                        <mxRectangle width="30" height="30" as="alternateBounds"/>
                    </mxGeometry>
                </mxCell>
                <mxCell id="QIzxBCn8zsCFtVh6Vq-W-13" value="name" style="shape=partialRectangle;connectable=0;fillColor=default;top=0;left=0;bottom=0;right=0;align=left;spacingLeft=6;overflow=hidden;labelBackgroundColor=none;" parent="QIzxBCn8zsCFtVh6Vq-W-11" vertex="1">
                    <mxGeometry x="30" width="150" height="30" as="geometry">
                        <mxRectangle width="150" height="30" as="alternateBounds"/>
                    </mxGeometry>
                </mxCell>
                <mxCell id="Pl13lo0GpG_AyRGbWiYM-28" style="edgeStyle=elbowEdgeStyle;rounded=1;orthogonalLoop=1;jettySize=auto;html=1;exitX=0;exitY=0.5;exitDx=0;exitDy=0;entryX=0;entryY=0.5;entryDx=0;entryDy=0;endArrow=ERmandOne;endFill=0;" parent="QIzxBCn8zsCFtVh6Vq-W-1" source="FM8rTbgFrX1pTYCdLaTx-4" target="QIzxBCn8zsCFtVh6Vq-W-5" edge="1">
                    <mxGeometry relative="1" as="geometry">
                        <Array as="points">
                            <mxPoint x="755" y="530"/>
                            <mxPoint x="705" y="540"/>
                        </Array>
                    </mxGeometry>
                </mxCell>
                <mxCell id="FM8rTbgFrX1pTYCdLaTx-4" value="Crop" style="shape=table;startSize=30;container=1;collapsible=1;childLayout=tableLayout;fixedRows=1;rowLines=0;fontStyle=1;align=center;resizeLast=1;labelBackgroundColor=none;fillColor=default;" parent="QIzxBCn8zsCFtVh6Vq-W-1" vertex="1">
                    <mxGeometry x="785" y="364" width="180" height="160" as="geometry"/>
                </mxCell>
                <mxCell id="FM8rTbgFrX1pTYCdLaTx-5" value="" style="shape=partialRectangle;collapsible=0;dropTarget=0;pointerEvents=0;fillColor=default;top=0;left=0;bottom=1;right=0;points=[[0,0.5],[1,0.5]];portConstraint=eastwest;labelBackgroundColor=none;" parent="FM8rTbgFrX1pTYCdLaTx-4" vertex="1">
                    <mxGeometry y="30" width="180" height="30" as="geometry"/>
                </mxCell>
                <mxCell id="FM8rTbgFrX1pTYCdLaTx-6" value="PK" style="shape=partialRectangle;connectable=0;fillColor=default;top=0;left=0;bottom=0;right=0;fontStyle=1;overflow=hidden;labelBackgroundColor=none;" parent="FM8rTbgFrX1pTYCdLaTx-5" vertex="1">
                    <mxGeometry width="30" height="30" as="geometry">
                        <mxRectangle width="30" height="30" as="alternateBounds"/>
                    </mxGeometry>
                </mxCell>
                <mxCell id="FM8rTbgFrX1pTYCdLaTx-7" value="crop id" style="shape=partialRectangle;connectable=0;fillColor=default;top=0;left=0;bottom=0;right=0;align=left;spacingLeft=6;fontStyle=5;overflow=hidden;labelBackgroundColor=none;" parent="FM8rTbgFrX1pTYCdLaTx-5" vertex="1">
                    <mxGeometry x="30" width="150" height="30" as="geometry">
                        <mxRectangle width="150" height="30" as="alternateBounds"/>
                    </mxGeometry>
                </mxCell>
                <mxCell id="FM8rTbgFrX1pTYCdLaTx-8" value="" style="shape=partialRectangle;collapsible=0;dropTarget=0;pointerEvents=0;fillColor=default;top=0;left=0;bottom=0;right=0;points=[[0,0.5],[1,0.5]];portConstraint=eastwest;labelBackgroundColor=none;" parent="FM8rTbgFrX1pTYCdLaTx-4" vertex="1">
                    <mxGeometry y="60" width="180" height="30" as="geometry"/>
                </mxCell>
                <mxCell id="FM8rTbgFrX1pTYCdLaTx-9" value="FK" style="shape=partialRectangle;connectable=0;fillColor=default;top=0;left=0;bottom=0;right=0;editable=1;overflow=hidden;labelBackgroundColor=none;" parent="FM8rTbgFrX1pTYCdLaTx-8" vertex="1">
                    <mxGeometry width="30" height="30" as="geometry">
                        <mxRectangle width="30" height="30" as="alternateBounds"/>
                    </mxGeometry>
                </mxCell>
                <mxCell id="FM8rTbgFrX1pTYCdLaTx-10" value="plant id" style="shape=partialRectangle;connectable=0;fillColor=default;top=0;left=0;bottom=0;right=0;align=left;spacingLeft=6;overflow=hidden;labelBackgroundColor=none;" parent="FM8rTbgFrX1pTYCdLaTx-8" vertex="1">
                    <mxGeometry x="30" width="150" height="30" as="geometry">
                        <mxRectangle width="150" height="30" as="alternateBounds"/>
                    </mxGeometry>
                </mxCell>
                <mxCell id="FM8rTbgFrX1pTYCdLaTx-11" value="" style="shape=partialRectangle;collapsible=0;dropTarget=0;pointerEvents=0;fillColor=default;top=0;left=0;bottom=0;right=0;points=[[0,0.5],[1,0.5]];portConstraint=eastwest;labelBackgroundColor=none;" parent="FM8rTbgFrX1pTYCdLaTx-4" vertex="1">
                    <mxGeometry y="90" width="180" height="30" as="geometry"/>
                </mxCell>
                <mxCell id="FM8rTbgFrX1pTYCdLaTx-12" value="" style="shape=partialRectangle;connectable=0;fillColor=default;top=0;left=0;bottom=0;right=0;editable=1;overflow=hidden;labelBackgroundColor=none;" parent="FM8rTbgFrX1pTYCdLaTx-11" vertex="1">
                    <mxGeometry width="30" height="30" as="geometry">
                        <mxRectangle width="30" height="30" as="alternateBounds"/>
                    </mxGeometry>
                </mxCell>
                <mxCell id="FM8rTbgFrX1pTYCdLaTx-13" value="planted area" style="shape=partialRectangle;connectable=0;fillColor=default;top=0;left=0;bottom=0;right=0;align=left;spacingLeft=6;overflow=hidden;labelBackgroundColor=none;" parent="FM8rTbgFrX1pTYCdLaTx-11" vertex="1">
                    <mxGeometry x="30" width="150" height="30" as="geometry">
                        <mxRectangle width="150" height="30" as="alternateBounds"/>
                    </mxGeometry>
                </mxCell>
                <mxCell id="FM8rTbgFrX1pTYCdLaTx-14" value="" style="shape=partialRectangle;collapsible=0;dropTarget=0;pointerEvents=0;fillColor=default;top=0;left=0;bottom=0;right=0;points=[[0,0.5],[1,0.5]];portConstraint=eastwest;labelBackgroundColor=none;" parent="FM8rTbgFrX1pTYCdLaTx-4" vertex="1">
                    <mxGeometry y="120" width="180" height="30" as="geometry"/>
                </mxCell>
                <mxCell id="FM8rTbgFrX1pTYCdLaTx-15" value="" style="shape=partialRectangle;connectable=0;fillColor=default;top=0;left=0;bottom=0;right=0;editable=1;overflow=hidden;labelBackgroundColor=none;" parent="FM8rTbgFrX1pTYCdLaTx-14" vertex="1">
                    <mxGeometry width="30" height="30" as="geometry">
                        <mxRectangle width="30" height="30" as="alternateBounds"/>
                    </mxGeometry>
                </mxCell>
                <mxCell id="FM8rTbgFrX1pTYCdLaTx-16" value="number of plants" style="shape=partialRectangle;connectable=0;fillColor=default;top=0;left=0;bottom=0;right=0;align=left;spacingLeft=6;overflow=hidden;labelBackgroundColor=none;" parent="FM8rTbgFrX1pTYCdLaTx-14" vertex="1">
                    <mxGeometry x="30" width="150" height="30" as="geometry">
                        <mxRectangle width="150" height="30" as="alternateBounds"/>
                    </mxGeometry>
                </mxCell>
                <mxCell id="kAK1g9AO6zmTmEhrDz97-0" value="Crop Info" style="shape=table;startSize=30;container=1;collapsible=1;childLayout=tableLayout;fixedRows=1;rowLines=0;fontStyle=1;align=center;resizeLast=1;labelBackgroundColor=none;fillColor=default;" parent="QIzxBCn8zsCFtVh6Vq-W-1" vertex="1">
                    <mxGeometry x="495" y="220" width="220" height="130" as="geometry"/>
                </mxCell>
                <mxCell id="kAK1g9AO6zmTmEhrDz97-1" value="" style="shape=partialRectangle;collapsible=0;dropTarget=0;pointerEvents=0;fillColor=default;top=0;left=0;bottom=1;right=0;points=[[0,0.5],[1,0.5]];portConstraint=eastwest;labelBackgroundColor=none;" parent="kAK1g9AO6zmTmEhrDz97-0" vertex="1">
                    <mxGeometry y="30" width="220" height="30" as="geometry"/>
                </mxCell>
                <mxCell id="kAK1g9AO6zmTmEhrDz97-2" value="PK" style="shape=partialRectangle;connectable=0;fillColor=default;top=0;left=0;bottom=0;right=0;fontStyle=1;overflow=hidden;labelBackgroundColor=none;" parent="kAK1g9AO6zmTmEhrDz97-1" vertex="1">
                    <mxGeometry width="30" height="30" as="geometry">
                        <mxRectangle width="30" height="30" as="alternateBounds"/>
                    </mxGeometry>
                </mxCell>
                <mxCell id="kAK1g9AO6zmTmEhrDz97-3" value="crop info id" style="shape=partialRectangle;connectable=0;fillColor=default;top=0;left=0;bottom=0;right=0;align=left;spacingLeft=6;fontStyle=5;overflow=hidden;labelBackgroundColor=none;" parent="kAK1g9AO6zmTmEhrDz97-1" vertex="1">
                    <mxGeometry x="30" width="190" height="30" as="geometry">
                        <mxRectangle width="190" height="30" as="alternateBounds"/>
                    </mxGeometry>
                </mxCell>
                <mxCell id="kAK1g9AO6zmTmEhrDz97-10" value="" style="shape=partialRectangle;collapsible=0;dropTarget=0;pointerEvents=0;fillColor=default;top=0;left=0;bottom=0;right=0;points=[[0,0.5],[1,0.5]];portConstraint=eastwest;labelBackgroundColor=none;" parent="kAK1g9AO6zmTmEhrDz97-0" vertex="1">
                    <mxGeometry y="60" width="220" height="30" as="geometry"/>
                </mxCell>
                <mxCell id="kAK1g9AO6zmTmEhrDz97-11" value="FK" style="shape=partialRectangle;connectable=0;fillColor=default;top=0;left=0;bottom=0;right=0;editable=1;overflow=hidden;labelBackgroundColor=none;" parent="kAK1g9AO6zmTmEhrDz97-10" vertex="1">
                    <mxGeometry width="30" height="30" as="geometry">
                        <mxRectangle width="30" height="30" as="alternateBounds"/>
                    </mxGeometry>
                </mxCell>
                <mxCell id="kAK1g9AO6zmTmEhrDz97-12" value="crop id" style="shape=partialRectangle;connectable=0;fillColor=default;top=0;left=0;bottom=0;right=0;align=left;spacingLeft=6;overflow=hidden;labelBackgroundColor=none;" parent="kAK1g9AO6zmTmEhrDz97-10" vertex="1">
                    <mxGeometry x="30" width="190" height="30" as="geometry">
                        <mxRectangle width="190" height="30" as="alternateBounds"/>
                    </mxGeometry>
                </mxCell>
                <mxCell id="kAK1g9AO6zmTmEhrDz97-7" value="" style="shape=partialRectangle;collapsible=0;dropTarget=0;pointerEvents=0;fillColor=default;top=0;left=0;bottom=0;right=0;points=[[0,0.5],[1,0.5]];portConstraint=eastwest;labelBackgroundColor=none;" parent="kAK1g9AO6zmTmEhrDz97-0" vertex="1">
                    <mxGeometry y="90" width="220" height="30" as="geometry"/>
                </mxCell>
                <mxCell id="kAK1g9AO6zmTmEhrDz97-8" value="" style="shape=partialRectangle;connectable=0;fillColor=default;top=0;left=0;bottom=0;right=0;editable=1;overflow=hidden;labelBackgroundColor=none;" parent="kAK1g9AO6zmTmEhrDz97-7" vertex="1">
                    <mxGeometry width="30" height="30" as="geometry">
                        <mxRectangle width="30" height="30" as="alternateBounds"/>
                    </mxGeometry>
                </mxCell>
                <mxCell id="kAK1g9AO6zmTmEhrDz97-9" value="context: enum NOT NULL" style="shape=partialRectangle;connectable=0;fillColor=default;top=0;left=0;bottom=0;right=0;align=left;spacingLeft=6;overflow=hidden;labelBackgroundColor=none;" parent="kAK1g9AO6zmTmEhrDz97-7" vertex="1">
                    <mxGeometry x="30" width="190" height="30" as="geometry">
                        <mxRectangle width="190" height="30" as="alternateBounds"/>
                    </mxGeometry>
                </mxCell>
                <mxCell id="dLst1HICB1775HRTWoF5-4" value="" style="edgeStyle=entityRelationEdgeStyle;fontSize=12;html=1;endArrow=ERmandOne;entryX=0;entryY=0.5;entryDx=0;entryDy=0;exitX=1;exitY=0.5;exitDx=0;exitDy=0;labelBackgroundColor=none;" parent="QIzxBCn8zsCFtVh6Vq-W-1" source="kAK1g9AO6zmTmEhrDz97-10" target="FM8rTbgFrX1pTYCdLaTx-5" edge="1">
                    <mxGeometry width="100" height="100" relative="1" as="geometry">
                        <mxPoint x="755" y="594" as="sourcePoint"/>
                        <mxPoint x="855" y="494" as="targetPoint"/>
                    </mxGeometry>
                </mxCell>
                <mxCell id="OKpoYnv_LqdjjwQRLRT2-2" style="edgeStyle=none;html=1;exitX=0.5;exitY=0;exitDx=0;exitDy=0;entryX=0.471;entryY=1;entryDx=0;entryDy=0;entryPerimeter=0;labelBackgroundColor=none;endArrow=none;endFill=0;dashed=1;" parent="QIzxBCn8zsCFtVh6Vq-W-1" source="dLst1HICB1775HRTWoF5-5" target="OKpoYnv_LqdjjwQRLRT2-0" edge="1">
                    <mxGeometry relative="1" as="geometry"/>
                </mxCell>
                <mxCell id="dLst1HICB1775HRTWoF5-5" value="Observation" style="shape=table;startSize=30;container=1;collapsible=1;childLayout=tableLayout;fixedRows=1;rowLines=0;fontStyle=1;align=center;resizeLast=1;labelBackgroundColor=none;fillColor=default;" parent="QIzxBCn8zsCFtVh6Vq-W-1" vertex="1">
                    <mxGeometry x="785" y="164" width="180" height="160" as="geometry"/>
                </mxCell>
                <mxCell id="dLst1HICB1775HRTWoF5-6" value="" style="shape=partialRectangle;collapsible=0;dropTarget=0;pointerEvents=0;fillColor=default;top=0;left=0;bottom=1;right=0;points=[[0,0.5],[1,0.5]];portConstraint=eastwest;labelBackgroundColor=none;" parent="dLst1HICB1775HRTWoF5-5" vertex="1">
                    <mxGeometry y="30" width="180" height="30" as="geometry"/>
                </mxCell>
                <mxCell id="dLst1HICB1775HRTWoF5-7" value="PK" style="shape=partialRectangle;connectable=0;fillColor=default;top=0;left=0;bottom=0;right=0;fontStyle=1;overflow=hidden;labelBackgroundColor=none;" parent="dLst1HICB1775HRTWoF5-6" vertex="1">
                    <mxGeometry width="30" height="30" as="geometry">
                        <mxRectangle width="30" height="30" as="alternateBounds"/>
                    </mxGeometry>
                </mxCell>
                <mxCell id="dLst1HICB1775HRTWoF5-8" value="observation id" style="shape=partialRectangle;connectable=0;fillColor=default;top=0;left=0;bottom=0;right=0;align=left;spacingLeft=6;fontStyle=5;overflow=hidden;labelBackgroundColor=none;" parent="dLst1HICB1775HRTWoF5-6" vertex="1">
                    <mxGeometry x="30" width="150" height="30" as="geometry">
                        <mxRectangle width="150" height="30" as="alternateBounds"/>
                    </mxGeometry>
                </mxCell>
                <mxCell id="dLst1HICB1775HRTWoF5-15" value="" style="shape=partialRectangle;collapsible=0;dropTarget=0;pointerEvents=0;fillColor=default;top=0;left=0;bottom=0;right=0;points=[[0,0.5],[1,0.5]];portConstraint=eastwest;labelBackgroundColor=none;" parent="dLst1HICB1775HRTWoF5-5" vertex="1">
                    <mxGeometry y="60" width="180" height="30" as="geometry"/>
                </mxCell>
                <mxCell id="dLst1HICB1775HRTWoF5-16" value="FK" style="shape=partialRectangle;connectable=0;fillColor=default;top=0;left=0;bottom=0;right=0;editable=1;overflow=hidden;labelBackgroundColor=none;" parent="dLst1HICB1775HRTWoF5-15" vertex="1">
                    <mxGeometry width="30" height="30" as="geometry">
                        <mxRectangle width="30" height="30" as="alternateBounds"/>
                    </mxGeometry>
                </mxCell>
                <mxCell id="dLst1HICB1775HRTWoF5-17" value="crop info id" style="shape=partialRectangle;connectable=0;fillColor=default;top=0;left=0;bottom=0;right=0;align=left;spacingLeft=6;overflow=hidden;labelBackgroundColor=none;" parent="dLst1HICB1775HRTWoF5-15" vertex="1">
                    <mxGeometry x="30" width="150" height="30" as="geometry">
                        <mxRectangle width="150" height="30" as="alternateBounds"/>
                    </mxGeometry>
                </mxCell>
                <mxCell id="dLst1HICB1775HRTWoF5-9" value="" style="shape=partialRectangle;collapsible=0;dropTarget=0;pointerEvents=0;fillColor=default;top=0;left=0;bottom=0;right=0;points=[[0,0.5],[1,0.5]];portConstraint=eastwest;labelBackgroundColor=none;" parent="dLst1HICB1775HRTWoF5-5" vertex="1">
                    <mxGeometry y="90" width="180" height="30" as="geometry"/>
                </mxCell>
                <mxCell id="dLst1HICB1775HRTWoF5-10" value="" style="shape=partialRectangle;connectable=0;fillColor=default;top=0;left=0;bottom=0;right=0;editable=1;overflow=hidden;labelBackgroundColor=none;" parent="dLst1HICB1775HRTWoF5-9" vertex="1">
                    <mxGeometry width="30" height="30" as="geometry">
                        <mxRectangle width="30" height="30" as="alternateBounds"/>
                    </mxGeometry>
                </mxCell>
                <mxCell id="dLst1HICB1775HRTWoF5-11" value="assunto" style="shape=partialRectangle;connectable=0;fillColor=default;top=0;left=0;bottom=0;right=0;align=left;spacingLeft=6;overflow=hidden;labelBackgroundColor=none;" parent="dLst1HICB1775HRTWoF5-9" vertex="1">
                    <mxGeometry x="30" width="150" height="30" as="geometry">
                        <mxRectangle width="150" height="30" as="alternateBounds"/>
                    </mxGeometry>
                </mxCell>
                <mxCell id="dLst1HICB1775HRTWoF5-12" value="" style="shape=partialRectangle;collapsible=0;dropTarget=0;pointerEvents=0;fillColor=default;top=0;left=0;bottom=0;right=0;points=[[0,0.5],[1,0.5]];portConstraint=eastwest;labelBackgroundColor=none;" parent="dLst1HICB1775HRTWoF5-5" vertex="1">
                    <mxGeometry y="120" width="180" height="30" as="geometry"/>
                </mxCell>
                <mxCell id="dLst1HICB1775HRTWoF5-13" value="" style="shape=partialRectangle;connectable=0;fillColor=default;top=0;left=0;bottom=0;right=0;editable=1;overflow=hidden;labelBackgroundColor=none;" parent="dLst1HICB1775HRTWoF5-12" vertex="1">
                    <mxGeometry width="30" height="30" as="geometry">
                        <mxRectangle width="30" height="30" as="alternateBounds"/>
                    </mxGeometry>
                </mxCell>
                <mxCell id="dLst1HICB1775HRTWoF5-14" value="content" style="shape=partialRectangle;connectable=0;fillColor=default;top=0;left=0;bottom=0;right=0;align=left;spacingLeft=6;overflow=hidden;labelBackgroundColor=none;" parent="dLst1HICB1775HRTWoF5-12" vertex="1">
                    <mxGeometry x="30" width="150" height="30" as="geometry">
                        <mxRectangle width="150" height="30" as="alternateBounds"/>
                    </mxGeometry>
                </mxCell>
                <mxCell id="629Gr7lWmxg7ho4CaUFp-0" value="" style="edgeStyle=entityRelationEdgeStyle;fontSize=12;html=1;endArrow=ERmandOne;entryX=1;entryY=0.5;entryDx=0;entryDy=0;exitX=0;exitY=0.5;exitDx=0;exitDy=0;labelBackgroundColor=none;" parent="QIzxBCn8zsCFtVh6Vq-W-1" source="dLst1HICB1775HRTWoF5-15" target="kAK1g9AO6zmTmEhrDz97-1" edge="1">
                    <mxGeometry width="100" height="100" relative="1" as="geometry">
                        <mxPoint x="755" y="564" as="sourcePoint"/>
                        <mxPoint x="855" y="464" as="targetPoint"/>
                    </mxGeometry>
                </mxCell>
                <mxCell id="uwA4JYNXH-ag4ya4kdrF-0" value="Crop info Plantio" style="shape=table;startSize=30;container=1;collapsible=1;childLayout=tableLayout;fixedRows=1;rowLines=0;fontStyle=1;align=center;resizeLast=1;labelBackgroundColor=none;fillColor=default;" parent="QIzxBCn8zsCFtVh6Vq-W-1" vertex="1">
                    <mxGeometry x="495" y="-30" width="180" height="220" as="geometry"/>
                </mxCell>
                <mxCell id="uwA4JYNXH-ag4ya4kdrF-1" value="" style="shape=partialRectangle;collapsible=0;dropTarget=0;pointerEvents=0;fillColor=default;top=0;left=0;bottom=1;right=0;points=[[0,0.5],[1,0.5]];portConstraint=eastwest;labelBackgroundColor=none;" parent="uwA4JYNXH-ag4ya4kdrF-0" vertex="1">
                    <mxGeometry y="30" width="180" height="30" as="geometry"/>
                </mxCell>
                <mxCell id="uwA4JYNXH-ag4ya4kdrF-2" value="PK" style="shape=partialRectangle;connectable=0;fillColor=default;top=0;left=0;bottom=0;right=0;fontStyle=1;overflow=hidden;labelBackgroundColor=none;" parent="uwA4JYNXH-ag4ya4kdrF-1" vertex="1">
                    <mxGeometry width="30" height="30" as="geometry">
                        <mxRectangle width="30" height="30" as="alternateBounds"/>
                    </mxGeometry>
                </mxCell>
                <mxCell id="uwA4JYNXH-ag4ya4kdrF-3" value="crop info plantio id" style="shape=partialRectangle;connectable=0;fillColor=default;top=0;left=0;bottom=0;right=0;align=left;spacingLeft=6;fontStyle=5;overflow=hidden;labelBackgroundColor=none;" parent="uwA4JYNXH-ag4ya4kdrF-1" vertex="1">
                    <mxGeometry x="30" width="150" height="30" as="geometry">
                        <mxRectangle width="150" height="30" as="alternateBounds"/>
                    </mxGeometry>
                </mxCell>
                <mxCell id="uwA4JYNXH-ag4ya4kdrF-4" value="" style="shape=partialRectangle;collapsible=0;dropTarget=0;pointerEvents=0;fillColor=default;top=0;left=0;bottom=0;right=0;points=[[0,0.5],[1,0.5]];portConstraint=eastwest;labelBackgroundColor=none;" parent="uwA4JYNXH-ag4ya4kdrF-0" vertex="1">
                    <mxGeometry y="60" width="180" height="30" as="geometry"/>
                </mxCell>
                <mxCell id="uwA4JYNXH-ag4ya4kdrF-5" value="FK" style="shape=partialRectangle;connectable=0;fillColor=default;top=0;left=0;bottom=0;right=0;editable=1;overflow=hidden;labelBackgroundColor=none;" parent="uwA4JYNXH-ag4ya4kdrF-4" vertex="1">
                    <mxGeometry width="30" height="30" as="geometry">
                        <mxRectangle width="30" height="30" as="alternateBounds"/>
                    </mxGeometry>
                </mxCell>
                <mxCell id="uwA4JYNXH-ag4ya4kdrF-6" value="crop info id" style="shape=partialRectangle;connectable=0;fillColor=default;top=0;left=0;bottom=0;right=0;align=left;spacingLeft=6;overflow=hidden;labelBackgroundColor=none;" parent="uwA4JYNXH-ag4ya4kdrF-4" vertex="1">
                    <mxGeometry x="30" width="150" height="30" as="geometry">
                        <mxRectangle width="150" height="30" as="alternateBounds"/>
                    </mxGeometry>
                </mxCell>
                <mxCell id="uwA4JYNXH-ag4ya4kdrF-7" value="" style="shape=partialRectangle;collapsible=0;dropTarget=0;pointerEvents=0;fillColor=default;top=0;left=0;bottom=0;right=0;points=[[0,0.5],[1,0.5]];portConstraint=eastwest;labelBackgroundColor=none;" parent="uwA4JYNXH-ag4ya4kdrF-0" vertex="1">
                    <mxGeometry y="90" width="180" height="30" as="geometry"/>
                </mxCell>
                <mxCell id="uwA4JYNXH-ag4ya4kdrF-8" value="" style="shape=partialRectangle;connectable=0;fillColor=default;top=0;left=0;bottom=0;right=0;editable=1;overflow=hidden;labelBackgroundColor=none;" parent="uwA4JYNXH-ag4ya4kdrF-7" vertex="1">
                    <mxGeometry width="30" height="30" as="geometry">
                        <mxRectangle width="30" height="30" as="alternateBounds"/>
                    </mxGeometry>
                </mxCell>
                <mxCell id="uwA4JYNXH-ag4ya4kdrF-9" value="context: PLANTIO" style="shape=partialRectangle;connectable=0;fillColor=default;top=0;left=0;bottom=0;right=0;align=left;spacingLeft=6;overflow=hidden;labelBackgroundColor=none;" parent="uwA4JYNXH-ag4ya4kdrF-7" vertex="1">
                    <mxGeometry x="30" width="150" height="30" as="geometry">
                        <mxRectangle width="150" height="30" as="alternateBounds"/>
                    </mxGeometry>
                </mxCell>
                <mxCell id="uwA4JYNXH-ag4ya4kdrF-10" value="" style="shape=partialRectangle;collapsible=0;dropTarget=0;pointerEvents=0;fillColor=default;top=0;left=0;bottom=0;right=0;points=[[0,0.5],[1,0.5]];portConstraint=eastwest;labelBackgroundColor=none;" parent="uwA4JYNXH-ag4ya4kdrF-0" vertex="1">
                    <mxGeometry y="120" width="180" height="30" as="geometry"/>
                </mxCell>
                <mxCell id="uwA4JYNXH-ag4ya4kdrF-11" value="" style="shape=partialRectangle;connectable=0;fillColor=default;top=0;left=0;bottom=0;right=0;editable=1;overflow=hidden;labelBackgroundColor=none;" parent="uwA4JYNXH-ag4ya4kdrF-10" vertex="1">
                    <mxGeometry width="30" height="30" as="geometry">
                        <mxRectangle width="30" height="30" as="alternateBounds"/>
                    </mxGeometry>
                </mxCell>
                <mxCell id="uwA4JYNXH-ag4ya4kdrF-12" value="data semeadura: date" style="shape=partialRectangle;connectable=0;fillColor=default;top=0;left=0;bottom=0;right=0;align=left;spacingLeft=6;overflow=hidden;labelBackgroundColor=none;" parent="uwA4JYNXH-ag4ya4kdrF-10" vertex="1">
                    <mxGeometry x="30" width="150" height="30" as="geometry">
                        <mxRectangle width="150" height="30" as="alternateBounds"/>
                    </mxGeometry>
                </mxCell>
                <mxCell id="UnF3yJqtgiS0ZqgESuSW-6" style="shape=partialRectangle;collapsible=0;dropTarget=0;pointerEvents=0;fillColor=default;top=0;left=0;bottom=0;right=0;points=[[0,0.5],[1,0.5]];portConstraint=eastwest;labelBackgroundColor=none;" parent="uwA4JYNXH-ag4ya4kdrF-0" vertex="1">
                    <mxGeometry y="150" width="180" height="30" as="geometry"/>
                </mxCell>
                <mxCell id="UnF3yJqtgiS0ZqgESuSW-7" style="shape=partialRectangle;connectable=0;fillColor=default;top=0;left=0;bottom=0;right=0;editable=1;overflow=hidden;labelBackgroundColor=none;" parent="UnF3yJqtgiS0ZqgESuSW-6" vertex="1">
                    <mxGeometry width="30" height="30" as="geometry">
                        <mxRectangle width="30" height="30" as="alternateBounds"/>
                    </mxGeometry>
                </mxCell>
                <mxCell id="UnF3yJqtgiS0ZqgESuSW-8" value="data germinação: date" style="shape=partialRectangle;connectable=0;fillColor=default;top=0;left=0;bottom=0;right=0;align=left;spacingLeft=6;overflow=hidden;labelBackgroundColor=none;" parent="UnF3yJqtgiS0ZqgESuSW-6" vertex="1">
                    <mxGeometry x="30" width="150" height="30" as="geometry">
                        <mxRectangle width="150" height="30" as="alternateBounds"/>
                    </mxGeometry>
                </mxCell>
                <mxCell id="UnF3yJqtgiS0ZqgESuSW-3" style="shape=partialRectangle;collapsible=0;dropTarget=0;pointerEvents=0;fillColor=default;top=0;left=0;bottom=0;right=0;points=[[0,0.5],[1,0.5]];portConstraint=eastwest;labelBackgroundColor=none;" parent="uwA4JYNXH-ag4ya4kdrF-0" vertex="1">
                    <mxGeometry y="180" width="180" height="30" as="geometry"/>
                </mxCell>
                <mxCell id="UnF3yJqtgiS0ZqgESuSW-4" style="shape=partialRectangle;connectable=0;fillColor=default;top=0;left=0;bottom=0;right=0;editable=1;overflow=hidden;labelBackgroundColor=none;" parent="UnF3yJqtgiS0ZqgESuSW-3" vertex="1">
                    <mxGeometry width="30" height="30" as="geometry">
                        <mxRectangle width="30" height="30" as="alternateBounds"/>
                    </mxGeometry>
                </mxCell>
                <mxCell id="UnF3yJqtgiS0ZqgESuSW-5" value="data plantio: date" style="shape=partialRectangle;connectable=0;fillColor=default;top=0;left=0;bottom=0;right=0;align=left;spacingLeft=6;overflow=hidden;labelBackgroundColor=none;" parent="UnF3yJqtgiS0ZqgESuSW-3" vertex="1">
                    <mxGeometry x="30" width="150" height="30" as="geometry">
                        <mxRectangle width="150" height="30" as="alternateBounds"/>
                    </mxGeometry>
                </mxCell>
                <mxCell id="OKpoYnv_LqdjjwQRLRT2-0" value="This design with 'crop info id' as FK allows to have &lt;i&gt;many &lt;/i&gt;&lt;font color=&quot;#33ff33&quot;&gt;&lt;b&gt;observations&lt;/b&gt; &lt;/font&gt;per &lt;font color=&quot;#33ff33&quot;&gt;&lt;b&gt;crop info&lt;/b&gt; &lt;/font&gt;if wanted" style="shape=note;whiteSpace=wrap;html=1;backgroundOutline=1;darkOpacity=0.05;labelBackgroundColor=none;fillColor=default;" parent="QIzxBCn8zsCFtVh6Vq-W-1" vertex="1">
                    <mxGeometry x="775" y="-10" width="210" height="110" as="geometry"/>
                </mxCell>
                <mxCell id="Uph6ZyRcc3cFrGOsn_87-0" value="Crop info Geral" style="shape=table;startSize=30;container=1;collapsible=1;childLayout=tableLayout;fixedRows=1;rowLines=0;fontStyle=1;align=center;resizeLast=1;labelBackgroundColor=none;fillColor=default;" parent="QIzxBCn8zsCFtVh6Vq-W-1" vertex="1">
                    <mxGeometry x="235" y="530" width="180" height="130" as="geometry"/>
                </mxCell>
                <mxCell id="Uph6ZyRcc3cFrGOsn_87-1" value="" style="shape=partialRectangle;collapsible=0;dropTarget=0;pointerEvents=0;fillColor=default;top=0;left=0;bottom=1;right=0;points=[[0,0.5],[1,0.5]];portConstraint=eastwest;labelBackgroundColor=none;" parent="Uph6ZyRcc3cFrGOsn_87-0" vertex="1">
                    <mxGeometry y="30" width="180" height="30" as="geometry"/>
                </mxCell>
                <mxCell id="Uph6ZyRcc3cFrGOsn_87-2" value="PK" style="shape=partialRectangle;connectable=0;fillColor=default;top=0;left=0;bottom=0;right=0;fontStyle=1;overflow=hidden;labelBackgroundColor=none;" parent="Uph6ZyRcc3cFrGOsn_87-1" vertex="1">
                    <mxGeometry width="30" height="30" as="geometry">
                        <mxRectangle width="30" height="30" as="alternateBounds"/>
                    </mxGeometry>
                </mxCell>
                <mxCell id="Uph6ZyRcc3cFrGOsn_87-3" value="crop info geral id" style="shape=partialRectangle;connectable=0;fillColor=default;top=0;left=0;bottom=0;right=0;align=left;spacingLeft=6;fontStyle=5;overflow=hidden;labelBackgroundColor=none;" parent="Uph6ZyRcc3cFrGOsn_87-1" vertex="1">
                    <mxGeometry x="30" width="150" height="30" as="geometry">
                        <mxRectangle width="150" height="30" as="alternateBounds"/>
                    </mxGeometry>
                </mxCell>
                <mxCell id="Uph6ZyRcc3cFrGOsn_87-4" value="" style="shape=partialRectangle;collapsible=0;dropTarget=0;pointerEvents=0;fillColor=default;top=0;left=0;bottom=0;right=0;points=[[0,0.5],[1,0.5]];portConstraint=eastwest;labelBackgroundColor=none;" parent="Uph6ZyRcc3cFrGOsn_87-0" vertex="1">
                    <mxGeometry y="60" width="180" height="30" as="geometry"/>
                </mxCell>
                <mxCell id="Uph6ZyRcc3cFrGOsn_87-5" value="FK" style="shape=partialRectangle;connectable=0;fillColor=default;top=0;left=0;bottom=0;right=0;editable=1;overflow=hidden;labelBackgroundColor=none;" parent="Uph6ZyRcc3cFrGOsn_87-4" vertex="1">
                    <mxGeometry width="30" height="30" as="geometry">
                        <mxRectangle width="30" height="30" as="alternateBounds"/>
                    </mxGeometry>
                </mxCell>
                <mxCell id="Uph6ZyRcc3cFrGOsn_87-6" value="crop info id" style="shape=partialRectangle;connectable=0;fillColor=default;top=0;left=0;bottom=0;right=0;align=left;spacingLeft=6;overflow=hidden;labelBackgroundColor=none;" parent="Uph6ZyRcc3cFrGOsn_87-4" vertex="1">
                    <mxGeometry x="30" width="150" height="30" as="geometry">
                        <mxRectangle width="150" height="30" as="alternateBounds"/>
                    </mxGeometry>
                </mxCell>
                <mxCell id="Uph6ZyRcc3cFrGOsn_87-7" value="" style="shape=partialRectangle;collapsible=0;dropTarget=0;pointerEvents=0;fillColor=default;top=0;left=0;bottom=0;right=0;points=[[0,0.5],[1,0.5]];portConstraint=eastwest;labelBackgroundColor=none;" parent="Uph6ZyRcc3cFrGOsn_87-0" vertex="1">
                    <mxGeometry y="90" width="180" height="30" as="geometry"/>
                </mxCell>
                <mxCell id="Uph6ZyRcc3cFrGOsn_87-8" value="" style="shape=partialRectangle;connectable=0;fillColor=default;top=0;left=0;bottom=0;right=0;editable=1;overflow=hidden;labelBackgroundColor=none;" parent="Uph6ZyRcc3cFrGOsn_87-7" vertex="1">
                    <mxGeometry width="30" height="30" as="geometry">
                        <mxRectangle width="30" height="30" as="alternateBounds"/>
                    </mxGeometry>
                </mxCell>
                <mxCell id="Uph6ZyRcc3cFrGOsn_87-9" value="context: GENERAL" style="shape=partialRectangle;connectable=0;fillColor=default;top=0;left=0;bottom=0;right=0;align=left;spacingLeft=6;overflow=hidden;labelBackgroundColor=none;" parent="Uph6ZyRcc3cFrGOsn_87-7" vertex="1">
                    <mxGeometry x="30" width="150" height="30" as="geometry">
                        <mxRectangle width="150" height="30" as="alternateBounds"/>
                    </mxGeometry>
                </mxCell>
                <mxCell id="h6vdsG01SD85e8MHMG3q-2" style="edgeStyle=none;html=1;exitX=0;exitY=0;exitDx=90;exitDy=0;exitPerimeter=0;entryX=0.5;entryY=1;entryDx=0;entryDy=0;labelBackgroundColor=none;fontColor=#33FF33;endArrow=none;endFill=0;dashed=1;" parent="QIzxBCn8zsCFtVh6Vq-W-1" source="h6vdsG01SD85e8MHMG3q-1" target="Uph6ZyRcc3cFrGOsn_87-0" edge="1">
                    <mxGeometry relative="1" as="geometry"/>
                </mxCell>
                <mxCell id="h6vdsG01SD85e8MHMG3q-1" value="This relation is a &lt;b&gt;&lt;font color=&quot;#33ff33&quot;&gt;holder for&lt;/font&gt;&lt;/b&gt; no other context specific &lt;b&gt;&lt;font color=&quot;#33ff33&quot;&gt;observations&lt;/font&gt;&lt;/b&gt;." style="shape=note;whiteSpace=wrap;html=1;backgroundOutline=1;darkOpacity=0.05;labelBackgroundColor=none;fillColor=default;" parent="QIzxBCn8zsCFtVh6Vq-W-1" vertex="1">
                    <mxGeometry x="235" y="694" width="210" height="110" as="geometry"/>
                </mxCell>
                <mxCell id="dIxEHVsVCB9NU7_ygMfi-0" value="Crop Info Colheita" style="shape=table;startSize=30;container=1;collapsible=1;childLayout=tableLayout;fixedRows=1;rowLines=0;fontStyle=1;align=center;resizeLast=1;labelBackgroundColor=none;fontColor=#FFFFFF;fillColor=default;" parent="QIzxBCn8zsCFtVh6Vq-W-1" vertex="1">
                    <mxGeometry x="495" y="420" width="180" height="220" as="geometry"/>
                </mxCell>
                <mxCell id="dIxEHVsVCB9NU7_ygMfi-1" value="" style="shape=partialRectangle;collapsible=0;dropTarget=0;pointerEvents=0;fillColor=default;top=0;left=0;bottom=1;right=0;points=[[0,0.5],[1,0.5]];portConstraint=eastwest;labelBackgroundColor=none;fontColor=#FFFFFF;" parent="dIxEHVsVCB9NU7_ygMfi-0" vertex="1">
                    <mxGeometry y="30" width="180" height="30" as="geometry"/>
                </mxCell>
                <mxCell id="dIxEHVsVCB9NU7_ygMfi-2" value="PK" style="shape=partialRectangle;connectable=0;fillColor=default;top=0;left=0;bottom=0;right=0;fontStyle=1;overflow=hidden;labelBackgroundColor=none;fontColor=#FFFFFF;" parent="dIxEHVsVCB9NU7_ygMfi-1" vertex="1">
                    <mxGeometry width="30" height="30" as="geometry">
                        <mxRectangle width="30" height="30" as="alternateBounds"/>
                    </mxGeometry>
                </mxCell>
                <mxCell id="dIxEHVsVCB9NU7_ygMfi-3" value="crop info colheita id" style="shape=partialRectangle;connectable=0;fillColor=default;top=0;left=0;bottom=0;right=0;align=left;spacingLeft=6;fontStyle=5;overflow=hidden;labelBackgroundColor=none;fontColor=#FFFFFF;" parent="dIxEHVsVCB9NU7_ygMfi-1" vertex="1">
                    <mxGeometry x="30" width="150" height="30" as="geometry">
                        <mxRectangle width="150" height="30" as="alternateBounds"/>
                    </mxGeometry>
                </mxCell>
                <mxCell id="dIxEHVsVCB9NU7_ygMfi-4" value="" style="shape=partialRectangle;collapsible=0;dropTarget=0;pointerEvents=0;fillColor=default;top=0;left=0;bottom=0;right=0;points=[[0,0.5],[1,0.5]];portConstraint=eastwest;labelBackgroundColor=none;fontColor=#FFFFFF;" parent="dIxEHVsVCB9NU7_ygMfi-0" vertex="1">
                    <mxGeometry y="60" width="180" height="30" as="geometry"/>
                </mxCell>
                <mxCell id="dIxEHVsVCB9NU7_ygMfi-5" value="FK" style="shape=partialRectangle;connectable=0;fillColor=default;top=0;left=0;bottom=0;right=0;editable=1;overflow=hidden;labelBackgroundColor=none;fontColor=#FFFFFF;" parent="dIxEHVsVCB9NU7_ygMfi-4" vertex="1">
                    <mxGeometry width="30" height="30" as="geometry">
                        <mxRectangle width="30" height="30" as="alternateBounds"/>
                    </mxGeometry>
                </mxCell>
                <mxCell id="dIxEHVsVCB9NU7_ygMfi-6" value="crop info id" style="shape=partialRectangle;connectable=0;fillColor=default;top=0;left=0;bottom=0;right=0;align=left;spacingLeft=6;overflow=hidden;labelBackgroundColor=none;fontColor=#FFFFFF;" parent="dIxEHVsVCB9NU7_ygMfi-4" vertex="1">
                    <mxGeometry x="30" width="150" height="30" as="geometry">
                        <mxRectangle width="150" height="30" as="alternateBounds"/>
                    </mxGeometry>
                </mxCell>
                <mxCell id="dIxEHVsVCB9NU7_ygMfi-10" value="" style="shape=partialRectangle;collapsible=0;dropTarget=0;pointerEvents=0;fillColor=default;top=0;left=0;bottom=0;right=0;points=[[0,0.5],[1,0.5]];portConstraint=eastwest;labelBackgroundColor=none;fontColor=#FFFFFF;" parent="dIxEHVsVCB9NU7_ygMfi-0" vertex="1">
                    <mxGeometry y="90" width="180" height="30" as="geometry"/>
                </mxCell>
                <mxCell id="dIxEHVsVCB9NU7_ygMfi-11" value="" style="shape=partialRectangle;connectable=0;fillColor=default;top=0;left=0;bottom=0;right=0;editable=1;overflow=hidden;labelBackgroundColor=none;fontColor=#FFFFFF;" parent="dIxEHVsVCB9NU7_ygMfi-10" vertex="1">
                    <mxGeometry width="30" height="30" as="geometry">
                        <mxRectangle width="30" height="30" as="alternateBounds"/>
                    </mxGeometry>
                </mxCell>
                <mxCell id="dIxEHVsVCB9NU7_ygMfi-12" value="context: COLHEITA" style="shape=partialRectangle;connectable=0;fillColor=default;top=0;left=0;bottom=0;right=0;align=left;spacingLeft=6;overflow=hidden;labelBackgroundColor=none;fontColor=#FFFFFF;" parent="dIxEHVsVCB9NU7_ygMfi-10" vertex="1">
                    <mxGeometry x="30" width="150" height="30" as="geometry">
                        <mxRectangle width="150" height="30" as="alternateBounds"/>
                    </mxGeometry>
                </mxCell>
                <mxCell id="dIxEHVsVCB9NU7_ygMfi-7" value="" style="shape=partialRectangle;collapsible=0;dropTarget=0;pointerEvents=0;fillColor=default;top=0;left=0;bottom=0;right=0;points=[[0,0.5],[1,0.5]];portConstraint=eastwest;labelBackgroundColor=none;fontColor=#FFFFFF;" parent="dIxEHVsVCB9NU7_ygMfi-0" vertex="1">
                    <mxGeometry y="120" width="180" height="30" as="geometry"/>
                </mxCell>
                <mxCell id="dIxEHVsVCB9NU7_ygMfi-8" value="" style="shape=partialRectangle;connectable=0;fillColor=default;top=0;left=0;bottom=0;right=0;editable=1;overflow=hidden;labelBackgroundColor=none;fontColor=#FFFFFF;" parent="dIxEHVsVCB9NU7_ygMfi-7" vertex="1">
                    <mxGeometry width="30" height="30" as="geometry">
                        <mxRectangle width="30" height="30" as="alternateBounds"/>
                    </mxGeometry>
                </mxCell>
                <mxCell id="dIxEHVsVCB9NU7_ygMfi-9" value="data colheita: date" style="shape=partialRectangle;connectable=0;fillColor=default;top=0;left=0;bottom=0;right=0;align=left;spacingLeft=6;overflow=hidden;labelBackgroundColor=none;fontColor=#FFFFFF;" parent="dIxEHVsVCB9NU7_ygMfi-7" vertex="1">
                    <mxGeometry x="30" width="150" height="30" as="geometry">
                        <mxRectangle width="150" height="30" as="alternateBounds"/>
                    </mxGeometry>
                </mxCell>
                <mxCell id="kL37dqk8fN2PBGIaBdBW-3" style="shape=partialRectangle;collapsible=0;dropTarget=0;pointerEvents=0;fillColor=default;top=0;left=0;bottom=0;right=0;points=[[0,0.5],[1,0.5]];portConstraint=eastwest;labelBackgroundColor=none;fontColor=#FFFFFF;" parent="dIxEHVsVCB9NU7_ygMfi-0" vertex="1">
                    <mxGeometry y="150" width="180" height="30" as="geometry"/>
                </mxCell>
                <mxCell id="kL37dqk8fN2PBGIaBdBW-4" style="shape=partialRectangle;connectable=0;fillColor=default;top=0;left=0;bottom=0;right=0;editable=1;overflow=hidden;labelBackgroundColor=none;fontColor=#FFFFFF;" parent="kL37dqk8fN2PBGIaBdBW-3" vertex="1">
                    <mxGeometry width="30" height="30" as="geometry">
                        <mxRectangle width="30" height="30" as="alternateBounds"/>
                    </mxGeometry>
                </mxCell>
                <mxCell id="kL37dqk8fN2PBGIaBdBW-5" value="area colhida" style="shape=partialRectangle;connectable=0;fillColor=default;top=0;left=0;bottom=0;right=0;align=left;spacingLeft=6;overflow=hidden;labelBackgroundColor=none;fontColor=#FFFFFF;" parent="kL37dqk8fN2PBGIaBdBW-3" vertex="1">
                    <mxGeometry x="30" width="150" height="30" as="geometry">
                        <mxRectangle width="150" height="30" as="alternateBounds"/>
                    </mxGeometry>
                </mxCell>
                <mxCell id="kL37dqk8fN2PBGIaBdBW-0" style="shape=partialRectangle;collapsible=0;dropTarget=0;pointerEvents=0;fillColor=default;top=0;left=0;bottom=0;right=0;points=[[0,0.5],[1,0.5]];portConstraint=eastwest;labelBackgroundColor=none;fontColor=#FFFFFF;" parent="dIxEHVsVCB9NU7_ygMfi-0" vertex="1">
                    <mxGeometry y="180" width="180" height="30" as="geometry"/>
                </mxCell>
                <mxCell id="kL37dqk8fN2PBGIaBdBW-1" style="shape=partialRectangle;connectable=0;fillColor=default;top=0;left=0;bottom=0;right=0;editable=1;overflow=hidden;labelBackgroundColor=none;fontColor=#FFFFFF;" parent="kL37dqk8fN2PBGIaBdBW-0" vertex="1">
                    <mxGeometry width="30" height="30" as="geometry">
                        <mxRectangle width="30" height="30" as="alternateBounds"/>
                    </mxGeometry>
                </mxCell>
                <mxCell id="kL37dqk8fN2PBGIaBdBW-2" value="produção" style="shape=partialRectangle;connectable=0;fillColor=default;top=0;left=0;bottom=0;right=0;align=left;spacingLeft=6;overflow=hidden;labelBackgroundColor=none;fontColor=#FFFFFF;" parent="kL37dqk8fN2PBGIaBdBW-0" vertex="1">
                    <mxGeometry x="30" width="150" height="30" as="geometry">
                        <mxRectangle width="150" height="30" as="alternateBounds"/>
                    </mxGeometry>
                </mxCell>
                <mxCell id="EdI2oAj_yunW9tT92_Hi-0" value="Crop Info Irrigation" style="shape=table;startSize=30;container=1;collapsible=1;childLayout=tableLayout;fixedRows=1;rowLines=0;fontStyle=1;align=center;resizeLast=1;labelBackgroundColor=none;fillColor=default;" parent="QIzxBCn8zsCFtVh6Vq-W-1" vertex="1">
                    <mxGeometry x="235" y="80" width="180" height="190" as="geometry"/>
                </mxCell>
                <mxCell id="EdI2oAj_yunW9tT92_Hi-1" value="" style="shape=partialRectangle;collapsible=0;dropTarget=0;pointerEvents=0;fillColor=default;top=0;left=0;bottom=1;right=0;points=[[0,0.5],[1,0.5]];portConstraint=eastwest;labelBackgroundColor=none;" parent="EdI2oAj_yunW9tT92_Hi-0" vertex="1">
                    <mxGeometry y="30" width="180" height="30" as="geometry"/>
                </mxCell>
                <mxCell id="EdI2oAj_yunW9tT92_Hi-2" value="PK" style="shape=partialRectangle;connectable=0;fillColor=default;top=0;left=0;bottom=0;right=0;fontStyle=1;overflow=hidden;labelBackgroundColor=none;" parent="EdI2oAj_yunW9tT92_Hi-1" vertex="1">
                    <mxGeometry width="20" height="30" as="geometry">
                        <mxRectangle width="20" height="30" as="alternateBounds"/>
                    </mxGeometry>
                </mxCell>
                <mxCell id="EdI2oAj_yunW9tT92_Hi-3" value="crop info irrigation id" style="shape=partialRectangle;connectable=0;fillColor=default;top=0;left=0;bottom=0;right=0;align=left;spacingLeft=6;fontStyle=5;overflow=hidden;labelBackgroundColor=none;" parent="EdI2oAj_yunW9tT92_Hi-1" vertex="1">
                    <mxGeometry x="20" width="160" height="30" as="geometry">
                        <mxRectangle width="160" height="30" as="alternateBounds"/>
                    </mxGeometry>
                </mxCell>
                <mxCell id="EdI2oAj_yunW9tT92_Hi-4" value="" style="shape=partialRectangle;collapsible=0;dropTarget=0;pointerEvents=0;fillColor=default;top=0;left=0;bottom=0;right=0;points=[[0,0.5],[1,0.5]];portConstraint=eastwest;labelBackgroundColor=none;" parent="EdI2oAj_yunW9tT92_Hi-0" vertex="1">
                    <mxGeometry y="60" width="180" height="30" as="geometry"/>
                </mxCell>
                <mxCell id="EdI2oAj_yunW9tT92_Hi-5" value="FK" style="shape=partialRectangle;connectable=0;fillColor=default;top=0;left=0;bottom=0;right=0;editable=1;overflow=hidden;labelBackgroundColor=none;" parent="EdI2oAj_yunW9tT92_Hi-4" vertex="1">
                    <mxGeometry width="20" height="30" as="geometry">
                        <mxRectangle width="20" height="30" as="alternateBounds"/>
                    </mxGeometry>
                </mxCell>
                <mxCell id="EdI2oAj_yunW9tT92_Hi-6" value="crop info id" style="shape=partialRectangle;connectable=0;fillColor=default;top=0;left=0;bottom=0;right=0;align=left;spacingLeft=6;overflow=hidden;labelBackgroundColor=none;" parent="EdI2oAj_yunW9tT92_Hi-4" vertex="1">
                    <mxGeometry x="20" width="160" height="30" as="geometry">
                        <mxRectangle width="160" height="30" as="alternateBounds"/>
                    </mxGeometry>
                </mxCell>
                <mxCell id="EdI2oAj_yunW9tT92_Hi-7" value="" style="shape=partialRectangle;collapsible=0;dropTarget=0;pointerEvents=0;fillColor=default;top=0;left=0;bottom=0;right=0;points=[[0,0.5],[1,0.5]];portConstraint=eastwest;labelBackgroundColor=none;" parent="EdI2oAj_yunW9tT92_Hi-0" vertex="1">
                    <mxGeometry y="90" width="180" height="30" as="geometry"/>
                </mxCell>
                <mxCell id="EdI2oAj_yunW9tT92_Hi-8" value="" style="shape=partialRectangle;connectable=0;fillColor=default;top=0;left=0;bottom=0;right=0;editable=1;overflow=hidden;labelBackgroundColor=none;" parent="EdI2oAj_yunW9tT92_Hi-7" vertex="1">
                    <mxGeometry width="20" height="30" as="geometry">
                        <mxRectangle width="20" height="30" as="alternateBounds"/>
                    </mxGeometry>
                </mxCell>
                <mxCell id="EdI2oAj_yunW9tT92_Hi-9" value="context: IRRIGATION" style="shape=partialRectangle;connectable=0;fillColor=default;top=0;left=0;bottom=0;right=0;align=left;spacingLeft=6;overflow=hidden;labelBackgroundColor=none;" parent="EdI2oAj_yunW9tT92_Hi-7" vertex="1">
                    <mxGeometry x="20" width="160" height="30" as="geometry">
                        <mxRectangle width="160" height="30" as="alternateBounds"/>
                    </mxGeometry>
                </mxCell>
                <mxCell id="EdI2oAj_yunW9tT92_Hi-10" value="" style="shape=partialRectangle;collapsible=0;dropTarget=0;pointerEvents=0;fillColor=default;top=0;left=0;bottom=0;right=0;points=[[0,0.5],[1,0.5]];portConstraint=eastwest;labelBackgroundColor=none;" parent="EdI2oAj_yunW9tT92_Hi-0" vertex="1">
                    <mxGeometry y="120" width="180" height="30" as="geometry"/>
                </mxCell>
                <mxCell id="EdI2oAj_yunW9tT92_Hi-11" value="" style="shape=partialRectangle;connectable=0;fillColor=default;top=0;left=0;bottom=0;right=0;editable=1;overflow=hidden;labelBackgroundColor=none;" parent="EdI2oAj_yunW9tT92_Hi-10" vertex="1">
                    <mxGeometry width="20" height="30" as="geometry">
                        <mxRectangle width="20" height="30" as="alternateBounds"/>
                    </mxGeometry>
                </mxCell>
                <mxCell id="EdI2oAj_yunW9tT92_Hi-12" value="data irrigação: date" style="shape=partialRectangle;connectable=0;fillColor=default;top=0;left=0;bottom=0;right=0;align=left;spacingLeft=6;overflow=hidden;labelBackgroundColor=none;" parent="EdI2oAj_yunW9tT92_Hi-10" vertex="1">
                    <mxGeometry x="20" width="160" height="30" as="geometry">
                        <mxRectangle width="160" height="30" as="alternateBounds"/>
                    </mxGeometry>
                </mxCell>
                <mxCell id="EdI2oAj_yunW9tT92_Hi-13" style="shape=partialRectangle;collapsible=0;dropTarget=0;pointerEvents=0;fillColor=default;top=0;left=0;bottom=0;right=0;points=[[0,0.5],[1,0.5]];portConstraint=eastwest;labelBackgroundColor=none;" parent="EdI2oAj_yunW9tT92_Hi-0" vertex="1">
                    <mxGeometry y="150" width="180" height="30" as="geometry"/>
                </mxCell>
                <mxCell id="EdI2oAj_yunW9tT92_Hi-14" style="shape=partialRectangle;connectable=0;fillColor=default;top=0;left=0;bottom=0;right=0;editable=1;overflow=hidden;labelBackgroundColor=none;" parent="EdI2oAj_yunW9tT92_Hi-13" vertex="1">
                    <mxGeometry width="20" height="30" as="geometry">
                        <mxRectangle width="20" height="30" as="alternateBounds"/>
                    </mxGeometry>
                </mxCell>
                <mxCell id="EdI2oAj_yunW9tT92_Hi-15" value="tempo irrigação" style="shape=partialRectangle;connectable=0;fillColor=default;top=0;left=0;bottom=0;right=0;align=left;spacingLeft=6;overflow=hidden;labelBackgroundColor=none;" parent="EdI2oAj_yunW9tT92_Hi-13" vertex="1">
                    <mxGeometry x="20" width="160" height="30" as="geometry">
                        <mxRectangle width="160" height="30" as="alternateBounds"/>
                    </mxGeometry>
                </mxCell>
                <mxCell id="Pl13lo0GpG_AyRGbWiYM-3" style="edgeStyle=elbowEdgeStyle;rounded=1;orthogonalLoop=1;jettySize=auto;html=1;exitX=0;exitY=0.5;exitDx=0;exitDy=0;entryX=0;entryY=0.5;entryDx=0;entryDy=0;endArrow=ERmandOne;endFill=0;" parent="QIzxBCn8zsCFtVh6Vq-W-1" source="uwA4JYNXH-ag4ya4kdrF-4" target="kAK1g9AO6zmTmEhrDz97-1" edge="1">
                    <mxGeometry relative="1" as="geometry">
                        <mxPoint x="505" y="270" as="targetPoint"/>
                        <Array as="points">
                            <mxPoint x="465" y="160"/>
                            <mxPoint x="465" y="110"/>
                            <mxPoint x="435" y="200"/>
                        </Array>
                    </mxGeometry>
                </mxCell>
                <mxCell id="Pl13lo0GpG_AyRGbWiYM-5" value="Crop Info Fertilização" style="shape=table;startSize=30;container=1;collapsible=1;childLayout=tableLayout;fixedRows=1;rowLines=0;fontStyle=1;align=center;resizeLast=1;labelBackgroundColor=none;fillColor=default;" parent="QIzxBCn8zsCFtVh6Vq-W-1" vertex="1">
                    <mxGeometry x="195" y="-170" width="220" height="190" as="geometry"/>
                </mxCell>
                <mxCell id="Pl13lo0GpG_AyRGbWiYM-6" value="" style="shape=partialRectangle;collapsible=0;dropTarget=0;pointerEvents=0;fillColor=default;top=0;left=0;bottom=1;right=0;points=[[0,0.5],[1,0.5]];portConstraint=eastwest;labelBackgroundColor=none;" parent="Pl13lo0GpG_AyRGbWiYM-5" vertex="1">
                    <mxGeometry y="30" width="220" height="30" as="geometry"/>
                </mxCell>
                <mxCell id="Pl13lo0GpG_AyRGbWiYM-7" value="PK" style="shape=partialRectangle;connectable=0;fillColor=default;top=0;left=0;bottom=0;right=0;fontStyle=1;overflow=hidden;labelBackgroundColor=none;" parent="Pl13lo0GpG_AyRGbWiYM-6" vertex="1">
                    <mxGeometry width="20" height="30" as="geometry">
                        <mxRectangle width="20" height="30" as="alternateBounds"/>
                    </mxGeometry>
                </mxCell>
                <mxCell id="Pl13lo0GpG_AyRGbWiYM-8" value="crop info fertilização id" style="shape=partialRectangle;connectable=0;fillColor=default;top=0;left=0;bottom=0;right=0;align=left;spacingLeft=6;fontStyle=5;overflow=hidden;labelBackgroundColor=none;" parent="Pl13lo0GpG_AyRGbWiYM-6" vertex="1">
                    <mxGeometry x="20" width="200" height="30" as="geometry">
                        <mxRectangle width="200" height="30" as="alternateBounds"/>
                    </mxGeometry>
                </mxCell>
                <mxCell id="Pl13lo0GpG_AyRGbWiYM-9" value="" style="shape=partialRectangle;collapsible=0;dropTarget=0;pointerEvents=0;fillColor=default;top=0;left=0;bottom=0;right=0;points=[[0,0.5],[1,0.5]];portConstraint=eastwest;labelBackgroundColor=none;" parent="Pl13lo0GpG_AyRGbWiYM-5" vertex="1">
                    <mxGeometry y="60" width="220" height="30" as="geometry"/>
                </mxCell>
                <mxCell id="Pl13lo0GpG_AyRGbWiYM-10" value="FK" style="shape=partialRectangle;connectable=0;fillColor=default;top=0;left=0;bottom=0;right=0;editable=1;overflow=hidden;labelBackgroundColor=none;" parent="Pl13lo0GpG_AyRGbWiYM-9" vertex="1">
                    <mxGeometry width="20" height="30" as="geometry">
                        <mxRectangle width="20" height="30" as="alternateBounds"/>
                    </mxGeometry>
                </mxCell>
                <mxCell id="Pl13lo0GpG_AyRGbWiYM-11" value="crop info id" style="shape=partialRectangle;connectable=0;fillColor=default;top=0;left=0;bottom=0;right=0;align=left;spacingLeft=6;overflow=hidden;labelBackgroundColor=none;" parent="Pl13lo0GpG_AyRGbWiYM-9" vertex="1">
                    <mxGeometry x="20" width="200" height="30" as="geometry">
                        <mxRectangle width="200" height="30" as="alternateBounds"/>
                    </mxGeometry>
                </mxCell>
                <mxCell id="Pl13lo0GpG_AyRGbWiYM-12" value="" style="shape=partialRectangle;collapsible=0;dropTarget=0;pointerEvents=0;fillColor=default;top=0;left=0;bottom=0;right=0;points=[[0,0.5],[1,0.5]];portConstraint=eastwest;labelBackgroundColor=none;" parent="Pl13lo0GpG_AyRGbWiYM-5" vertex="1">
                    <mxGeometry y="90" width="220" height="30" as="geometry"/>
                </mxCell>
                <mxCell id="Pl13lo0GpG_AyRGbWiYM-13" value="" style="shape=partialRectangle;connectable=0;fillColor=default;top=0;left=0;bottom=0;right=0;editable=1;overflow=hidden;labelBackgroundColor=none;" parent="Pl13lo0GpG_AyRGbWiYM-12" vertex="1">
                    <mxGeometry width="20" height="30" as="geometry">
                        <mxRectangle width="20" height="30" as="alternateBounds"/>
                    </mxGeometry>
                </mxCell>
                <mxCell id="Pl13lo0GpG_AyRGbWiYM-14" value="context: FERTILIZAÇÃO" style="shape=partialRectangle;connectable=0;fillColor=default;top=0;left=0;bottom=0;right=0;align=left;spacingLeft=6;overflow=hidden;labelBackgroundColor=none;" parent="Pl13lo0GpG_AyRGbWiYM-12" vertex="1">
                    <mxGeometry x="20" width="200" height="30" as="geometry">
                        <mxRectangle width="200" height="30" as="alternateBounds"/>
                    </mxGeometry>
                </mxCell>
                <mxCell id="Pl13lo0GpG_AyRGbWiYM-15" value="" style="shape=partialRectangle;collapsible=0;dropTarget=0;pointerEvents=0;fillColor=default;top=0;left=0;bottom=0;right=0;points=[[0,0.5],[1,0.5]];portConstraint=eastwest;labelBackgroundColor=none;" parent="Pl13lo0GpG_AyRGbWiYM-5" vertex="1">
                    <mxGeometry y="120" width="220" height="30" as="geometry"/>
                </mxCell>
                <mxCell id="Pl13lo0GpG_AyRGbWiYM-16" value="" style="shape=partialRectangle;connectable=0;fillColor=default;top=0;left=0;bottom=0;right=0;editable=1;overflow=hidden;labelBackgroundColor=none;" parent="Pl13lo0GpG_AyRGbWiYM-15" vertex="1">
                    <mxGeometry width="20" height="30" as="geometry">
                        <mxRectangle width="20" height="30" as="alternateBounds"/>
                    </mxGeometry>
                </mxCell>
                <mxCell id="Pl13lo0GpG_AyRGbWiYM-17" value="data fertilização: date" style="shape=partialRectangle;connectable=0;fillColor=default;top=0;left=0;bottom=0;right=0;align=left;spacingLeft=6;overflow=hidden;labelBackgroundColor=none;" parent="Pl13lo0GpG_AyRGbWiYM-15" vertex="1">
                    <mxGeometry x="20" width="200" height="30" as="geometry">
                        <mxRectangle width="200" height="30" as="alternateBounds"/>
                    </mxGeometry>
                </mxCell>
                <mxCell id="yAMCrrcCvcgOajwf4rZR-0" style="shape=partialRectangle;collapsible=0;dropTarget=0;pointerEvents=0;fillColor=default;top=0;left=0;bottom=0;right=0;points=[[0,0.5],[1,0.5]];portConstraint=eastwest;labelBackgroundColor=none;" vertex="1" parent="Pl13lo0GpG_AyRGbWiYM-5">
                    <mxGeometry y="150" width="220" height="30" as="geometry"/>
                </mxCell>
                <mxCell id="yAMCrrcCvcgOajwf4rZR-1" style="shape=partialRectangle;connectable=0;fillColor=default;top=0;left=0;bottom=0;right=0;editable=1;overflow=hidden;labelBackgroundColor=none;" vertex="1" parent="yAMCrrcCvcgOajwf4rZR-0">
                    <mxGeometry width="20" height="30" as="geometry">
                        <mxRectangle width="20" height="30" as="alternateBounds"/>
                    </mxGeometry>
                </mxCell>
                <mxCell id="yAMCrrcCvcgOajwf4rZR-2" value="hora fertlização: time" style="shape=partialRectangle;connectable=0;fillColor=default;top=0;left=0;bottom=0;right=0;align=left;spacingLeft=6;overflow=hidden;labelBackgroundColor=none;" vertex="1" parent="yAMCrrcCvcgOajwf4rZR-0">
                    <mxGeometry x="20" width="200" height="30" as="geometry">
                        <mxRectangle width="200" height="30" as="alternateBounds"/>
                    </mxGeometry>
                </mxCell>
                <mxCell id="Pl13lo0GpG_AyRGbWiYM-24" style="edgeStyle=elbowEdgeStyle;rounded=1;orthogonalLoop=1;jettySize=auto;html=1;exitX=1;exitY=0.5;exitDx=0;exitDy=0;entryX=0;entryY=0.5;entryDx=0;entryDy=0;endArrow=ERmandOne;endFill=0;" parent="QIzxBCn8zsCFtVh6Vq-W-1" source="Pl13lo0GpG_AyRGbWiYM-9" target="kAK1g9AO6zmTmEhrDz97-1" edge="1">
                    <mxGeometry relative="1" as="geometry">
                        <Array as="points">
                            <mxPoint x="465" y="80"/>
                        </Array>
                    </mxGeometry>
                </mxCell>
                <mxCell id="Pl13lo0GpG_AyRGbWiYM-25" style="edgeStyle=elbowEdgeStyle;rounded=1;orthogonalLoop=1;jettySize=auto;html=1;exitX=1;exitY=0.5;exitDx=0;exitDy=0;entryX=0;entryY=0.5;entryDx=0;entryDy=0;endArrow=ERmandOne;endFill=0;" parent="QIzxBCn8zsCFtVh6Vq-W-1" source="EdI2oAj_yunW9tT92_Hi-4" target="kAK1g9AO6zmTmEhrDz97-1" edge="1">
                    <mxGeometry relative="1" as="geometry">
                        <Array as="points">
                            <mxPoint x="465" y="180"/>
                        </Array>
                    </mxGeometry>
                </mxCell>
                <mxCell id="Pl13lo0GpG_AyRGbWiYM-26" style="edgeStyle=elbowEdgeStyle;rounded=1;orthogonalLoop=1;jettySize=auto;html=1;exitX=1;exitY=0.5;exitDx=0;exitDy=0;entryX=0;entryY=0.5;entryDx=0;entryDy=0;endArrow=ERmandOne;endFill=0;" parent="QIzxBCn8zsCFtVh6Vq-W-1" source="Uph6ZyRcc3cFrGOsn_87-4" target="kAK1g9AO6zmTmEhrDz97-1" edge="1">
                    <mxGeometry relative="1" as="geometry">
                        <Array as="points">
                            <mxPoint x="465" y="320"/>
                        </Array>
                    </mxGeometry>
                </mxCell>
                <mxCell id="Pl13lo0GpG_AyRGbWiYM-27" style="edgeStyle=elbowEdgeStyle;rounded=1;orthogonalLoop=1;jettySize=auto;html=1;exitX=0;exitY=0.5;exitDx=0;exitDy=0;entryX=0;entryY=0.5;entryDx=0;entryDy=0;endArrow=ERmandOne;endFill=0;" parent="QIzxBCn8zsCFtVh6Vq-W-1" source="dIxEHVsVCB9NU7_ygMfi-4" target="kAK1g9AO6zmTmEhrDz97-1" edge="1">
                    <mxGeometry relative="1" as="geometry">
                        <Array as="points">
                            <mxPoint x="465" y="380"/>
                        </Array>
                    </mxGeometry>
                </mxCell>
                <mxCell id="Pl13lo0GpG_AyRGbWiYM-29" value="Crop info Manejo Pragas" style="shape=table;startSize=30;container=1;collapsible=1;childLayout=tableLayout;fixedRows=1;rowLines=0;fontStyle=1;align=center;resizeLast=1;labelBackgroundColor=none;fillColor=default;" parent="QIzxBCn8zsCFtVh6Vq-W-1" vertex="1">
                    <mxGeometry x="185" y="290" width="230" height="220" as="geometry"/>
                </mxCell>
                <mxCell id="Pl13lo0GpG_AyRGbWiYM-30" value="" style="shape=partialRectangle;collapsible=0;dropTarget=0;pointerEvents=0;fillColor=default;top=0;left=0;bottom=1;right=0;points=[[0,0.5],[1,0.5]];portConstraint=eastwest;labelBackgroundColor=none;" parent="Pl13lo0GpG_AyRGbWiYM-29" vertex="1">
                    <mxGeometry y="30" width="230" height="30" as="geometry"/>
                </mxCell>
                <mxCell id="Pl13lo0GpG_AyRGbWiYM-31" value="PK" style="shape=partialRectangle;connectable=0;fillColor=default;top=0;left=0;bottom=0;right=0;fontStyle=1;overflow=hidden;labelBackgroundColor=none;" parent="Pl13lo0GpG_AyRGbWiYM-30" vertex="1">
                    <mxGeometry width="30" height="30" as="geometry">
                        <mxRectangle width="30" height="30" as="alternateBounds"/>
                    </mxGeometry>
                </mxCell>
                <mxCell id="Pl13lo0GpG_AyRGbWiYM-32" value="crop info manejo pragas id" style="shape=partialRectangle;connectable=0;fillColor=default;top=0;left=0;bottom=0;right=0;align=left;spacingLeft=6;fontStyle=5;overflow=hidden;labelBackgroundColor=none;" parent="Pl13lo0GpG_AyRGbWiYM-30" vertex="1">
                    <mxGeometry x="30" width="200" height="30" as="geometry">
                        <mxRectangle width="200" height="30" as="alternateBounds"/>
                    </mxGeometry>
                </mxCell>
                <mxCell id="Pl13lo0GpG_AyRGbWiYM-33" value="" style="shape=partialRectangle;collapsible=0;dropTarget=0;pointerEvents=0;fillColor=default;top=0;left=0;bottom=0;right=0;points=[[0,0.5],[1,0.5]];portConstraint=eastwest;labelBackgroundColor=none;" parent="Pl13lo0GpG_AyRGbWiYM-29" vertex="1">
                    <mxGeometry y="60" width="230" height="30" as="geometry"/>
                </mxCell>
                <mxCell id="Pl13lo0GpG_AyRGbWiYM-34" value="FK" style="shape=partialRectangle;connectable=0;fillColor=default;top=0;left=0;bottom=0;right=0;editable=1;overflow=hidden;labelBackgroundColor=none;" parent="Pl13lo0GpG_AyRGbWiYM-33" vertex="1">
                    <mxGeometry width="30" height="30" as="geometry">
                        <mxRectangle width="30" height="30" as="alternateBounds"/>
                    </mxGeometry>
                </mxCell>
                <mxCell id="Pl13lo0GpG_AyRGbWiYM-35" value="crop info id" style="shape=partialRectangle;connectable=0;fillColor=default;top=0;left=0;bottom=0;right=0;align=left;spacingLeft=6;overflow=hidden;labelBackgroundColor=none;" parent="Pl13lo0GpG_AyRGbWiYM-33" vertex="1">
                    <mxGeometry x="30" width="200" height="30" as="geometry">
                        <mxRectangle width="200" height="30" as="alternateBounds"/>
                    </mxGeometry>
                </mxCell>
                <mxCell id="Pl13lo0GpG_AyRGbWiYM-36" value="" style="shape=partialRectangle;collapsible=0;dropTarget=0;pointerEvents=0;fillColor=default;top=0;left=0;bottom=0;right=0;points=[[0,0.5],[1,0.5]];portConstraint=eastwest;labelBackgroundColor=none;" parent="Pl13lo0GpG_AyRGbWiYM-29" vertex="1">
                    <mxGeometry y="90" width="230" height="30" as="geometry"/>
                </mxCell>
                <mxCell id="Pl13lo0GpG_AyRGbWiYM-37" value="" style="shape=partialRectangle;connectable=0;fillColor=default;top=0;left=0;bottom=0;right=0;editable=1;overflow=hidden;labelBackgroundColor=none;" parent="Pl13lo0GpG_AyRGbWiYM-36" vertex="1">
                    <mxGeometry width="30" height="30" as="geometry">
                        <mxRectangle width="30" height="30" as="alternateBounds"/>
                    </mxGeometry>
                </mxCell>
                <mxCell id="Pl13lo0GpG_AyRGbWiYM-38" value="context: MANEJO PRAGAS" style="shape=partialRectangle;connectable=0;fillColor=default;top=0;left=0;bottom=0;right=0;align=left;spacingLeft=6;overflow=hidden;labelBackgroundColor=none;" parent="Pl13lo0GpG_AyRGbWiYM-36" vertex="1">
                    <mxGeometry x="30" width="200" height="30" as="geometry">
                        <mxRectangle width="200" height="30" as="alternateBounds"/>
                    </mxGeometry>
                </mxCell>
                <mxCell id="Pl13lo0GpG_AyRGbWiYM-39" value="" style="shape=partialRectangle;collapsible=0;dropTarget=0;pointerEvents=0;fillColor=default;top=0;left=0;bottom=0;right=0;points=[[0,0.5],[1,0.5]];portConstraint=eastwest;labelBackgroundColor=none;" parent="Pl13lo0GpG_AyRGbWiYM-29" vertex="1">
                    <mxGeometry y="120" width="230" height="30" as="geometry"/>
                </mxCell>
                <mxCell id="Pl13lo0GpG_AyRGbWiYM-40" value="" style="shape=partialRectangle;connectable=0;fillColor=default;top=0;left=0;bottom=0;right=0;editable=1;overflow=hidden;labelBackgroundColor=none;" parent="Pl13lo0GpG_AyRGbWiYM-39" vertex="1">
                    <mxGeometry width="30" height="30" as="geometry">
                        <mxRectangle width="30" height="30" as="alternateBounds"/>
                    </mxGeometry>
                </mxCell>
                <mxCell id="Pl13lo0GpG_AyRGbWiYM-41" value="data menejo: date" style="shape=partialRectangle;connectable=0;fillColor=default;top=0;left=0;bottom=0;right=0;align=left;spacingLeft=6;overflow=hidden;labelBackgroundColor=none;" parent="Pl13lo0GpG_AyRGbWiYM-39" vertex="1">
                    <mxGeometry x="30" width="200" height="30" as="geometry">
                        <mxRectangle width="200" height="30" as="alternateBounds"/>
                    </mxGeometry>
                </mxCell>
                <mxCell id="Pl13lo0GpG_AyRGbWiYM-42" style="shape=partialRectangle;collapsible=0;dropTarget=0;pointerEvents=0;fillColor=default;top=0;left=0;bottom=0;right=0;points=[[0,0.5],[1,0.5]];portConstraint=eastwest;labelBackgroundColor=none;" parent="Pl13lo0GpG_AyRGbWiYM-29" vertex="1">
                    <mxGeometry y="150" width="230" height="30" as="geometry"/>
                </mxCell>
                <mxCell id="Pl13lo0GpG_AyRGbWiYM-43" style="shape=partialRectangle;connectable=0;fillColor=default;top=0;left=0;bottom=0;right=0;editable=1;overflow=hidden;labelBackgroundColor=none;" parent="Pl13lo0GpG_AyRGbWiYM-42" vertex="1">
                    <mxGeometry width="30" height="30" as="geometry">
                        <mxRectangle width="30" height="30" as="alternateBounds"/>
                    </mxGeometry>
                </mxCell>
                <mxCell id="Pl13lo0GpG_AyRGbWiYM-44" value="produto utilizado" style="shape=partialRectangle;connectable=0;fillColor=default;top=0;left=0;bottom=0;right=0;align=left;spacingLeft=6;overflow=hidden;labelBackgroundColor=none;" parent="Pl13lo0GpG_AyRGbWiYM-42" vertex="1">
                    <mxGeometry x="30" width="200" height="30" as="geometry">
                        <mxRectangle width="200" height="30" as="alternateBounds"/>
                    </mxGeometry>
                </mxCell>
                <mxCell id="Pl13lo0GpG_AyRGbWiYM-45" style="shape=partialRectangle;collapsible=0;dropTarget=0;pointerEvents=0;fillColor=default;top=0;left=0;bottom=0;right=0;points=[[0,0.5],[1,0.5]];portConstraint=eastwest;labelBackgroundColor=none;" parent="Pl13lo0GpG_AyRGbWiYM-29" vertex="1">
                    <mxGeometry y="180" width="230" height="30" as="geometry"/>
                </mxCell>
                <mxCell id="Pl13lo0GpG_AyRGbWiYM-46" style="shape=partialRectangle;connectable=0;fillColor=default;top=0;left=0;bottom=0;right=0;editable=1;overflow=hidden;labelBackgroundColor=none;" parent="Pl13lo0GpG_AyRGbWiYM-45" vertex="1">
                    <mxGeometry width="30" height="30" as="geometry">
                        <mxRectangle width="30" height="30" as="alternateBounds"/>
                    </mxGeometry>
                </mxCell>
                <mxCell id="Pl13lo0GpG_AyRGbWiYM-47" value="quantidade produto usado" style="shape=partialRectangle;connectable=0;fillColor=default;top=0;left=0;bottom=0;right=0;align=left;spacingLeft=6;overflow=hidden;labelBackgroundColor=none;" parent="Pl13lo0GpG_AyRGbWiYM-45" vertex="1">
                    <mxGeometry x="30" width="200" height="30" as="geometry">
                        <mxRectangle width="200" height="30" as="alternateBounds"/>
                    </mxGeometry>
                </mxCell>
                <mxCell id="Pl13lo0GpG_AyRGbWiYM-48" style="edgeStyle=elbowEdgeStyle;rounded=1;orthogonalLoop=1;jettySize=auto;html=1;exitX=1;exitY=0.5;exitDx=0;exitDy=0;entryX=0;entryY=0.5;entryDx=0;entryDy=0;endArrow=ERmandOne;endFill=0;" parent="QIzxBCn8zsCFtVh6Vq-W-1" source="Pl13lo0GpG_AyRGbWiYM-33" target="kAK1g9AO6zmTmEhrDz97-1" edge="1">
                    <mxGeometry relative="1" as="geometry">
                        <Array as="points">
                            <mxPoint x="465" y="320"/>
                        </Array>
                    </mxGeometry>
                </mxCell>
                <mxCell id="c8TxxvWtxQdozVp8fG8U-22" style="edgeStyle=elbowEdgeStyle;html=1;exitX=0;exitY=0.5;exitDx=0;exitDy=0;entryX=1;entryY=0.5;entryDx=0;entryDy=0;endArrow=ERmandOne;endFill=0;" edge="1" parent="QIzxBCn8zsCFtVh6Vq-W-1" source="eRANCnXTaYhk1zn529qP-0" target="c8TxxvWtxQdozVp8fG8U-4">
                    <mxGeometry relative="1" as="geometry"/>
                </mxCell>
                <mxCell id="eRANCnXTaYhk1zn529qP-0" value="Fertilizante Usado" style="shape=table;startSize=30;container=1;collapsible=1;childLayout=tableLayout;fixedRows=1;rowLines=0;fontStyle=1;align=center;resizeLast=1;labelBackgroundColor=none;fillColor=default;" vertex="1" parent="QIzxBCn8zsCFtVh6Vq-W-1">
                    <mxGeometry x="-70" y="-170" width="220" height="220" as="geometry"/>
                </mxCell>
                <mxCell id="eRANCnXTaYhk1zn529qP-1" value="" style="shape=partialRectangle;collapsible=0;dropTarget=0;pointerEvents=0;fillColor=default;top=0;left=0;bottom=1;right=0;points=[[0,0.5],[1,0.5]];portConstraint=eastwest;labelBackgroundColor=none;" vertex="1" parent="eRANCnXTaYhk1zn529qP-0">
                    <mxGeometry y="30" width="220" height="30" as="geometry"/>
                </mxCell>
                <mxCell id="eRANCnXTaYhk1zn529qP-2" value="PK" style="shape=partialRectangle;connectable=0;fillColor=default;top=0;left=0;bottom=0;right=0;fontStyle=1;overflow=hidden;labelBackgroundColor=none;" vertex="1" parent="eRANCnXTaYhk1zn529qP-1">
                    <mxGeometry width="20" height="30" as="geometry">
                        <mxRectangle width="20" height="30" as="alternateBounds"/>
                    </mxGeometry>
                </mxCell>
                <mxCell id="eRANCnXTaYhk1zn529qP-3" value="fertlizante usado id" style="shape=partialRectangle;connectable=0;fillColor=default;top=0;left=0;bottom=0;right=0;align=left;spacingLeft=6;fontStyle=5;overflow=hidden;labelBackgroundColor=none;" vertex="1" parent="eRANCnXTaYhk1zn529qP-1">
                    <mxGeometry x="20" width="200" height="30" as="geometry">
                        <mxRectangle width="200" height="30" as="alternateBounds"/>
                    </mxGeometry>
                </mxCell>
                <mxCell id="eRANCnXTaYhk1zn529qP-4" value="" style="shape=partialRectangle;collapsible=0;dropTarget=0;pointerEvents=0;fillColor=default;top=0;left=0;bottom=0;right=0;points=[[0,0.5],[1,0.5]];portConstraint=eastwest;labelBackgroundColor=none;" vertex="1" parent="eRANCnXTaYhk1zn529qP-0">
                    <mxGeometry y="60" width="220" height="30" as="geometry"/>
                </mxCell>
                <mxCell id="eRANCnXTaYhk1zn529qP-5" value="FK" style="shape=partialRectangle;connectable=0;fillColor=default;top=0;left=0;bottom=0;right=0;editable=1;overflow=hidden;labelBackgroundColor=none;" vertex="1" parent="eRANCnXTaYhk1zn529qP-4">
                    <mxGeometry width="20" height="30" as="geometry">
                        <mxRectangle width="20" height="30" as="alternateBounds"/>
                    </mxGeometry>
                </mxCell>
                <mxCell id="eRANCnXTaYhk1zn529qP-6" value="crop info ferlização id" style="shape=partialRectangle;connectable=0;fillColor=default;top=0;left=0;bottom=0;right=0;align=left;spacingLeft=6;overflow=hidden;labelBackgroundColor=none;" vertex="1" parent="eRANCnXTaYhk1zn529qP-4">
                    <mxGeometry x="20" width="200" height="30" as="geometry">
                        <mxRectangle width="200" height="30" as="alternateBounds"/>
                    </mxGeometry>
                </mxCell>
                <mxCell id="eRANCnXTaYhk1zn529qP-10" value="" style="shape=partialRectangle;collapsible=0;dropTarget=0;pointerEvents=0;fillColor=default;top=0;left=0;bottom=0;right=0;points=[[0,0.5],[1,0.5]];portConstraint=eastwest;labelBackgroundColor=none;" vertex="1" parent="eRANCnXTaYhk1zn529qP-0">
                    <mxGeometry y="90" width="220" height="30" as="geometry"/>
                </mxCell>
                <mxCell id="eRANCnXTaYhk1zn529qP-11" value="FK" style="shape=partialRectangle;connectable=0;fillColor=default;top=0;left=0;bottom=0;right=0;editable=1;overflow=hidden;labelBackgroundColor=none;" vertex="1" parent="eRANCnXTaYhk1zn529qP-10">
                    <mxGeometry width="20" height="30" as="geometry">
                        <mxRectangle width="20" height="30" as="alternateBounds"/>
                    </mxGeometry>
                </mxCell>
                <mxCell id="eRANCnXTaYhk1zn529qP-12" value="fertlizante id" style="shape=partialRectangle;connectable=0;fillColor=default;top=0;left=0;bottom=0;right=0;align=left;spacingLeft=6;overflow=hidden;labelBackgroundColor=none;" vertex="1" parent="eRANCnXTaYhk1zn529qP-10">
                    <mxGeometry x="20" width="200" height="30" as="geometry">
                        <mxRectangle width="200" height="30" as="alternateBounds"/>
                    </mxGeometry>
                </mxCell>
                <mxCell id="eRANCnXTaYhk1zn529qP-13" style="shape=partialRectangle;collapsible=0;dropTarget=0;pointerEvents=0;fillColor=default;top=0;left=0;bottom=0;right=0;points=[[0,0.5],[1,0.5]];portConstraint=eastwest;labelBackgroundColor=none;" vertex="1" parent="eRANCnXTaYhk1zn529qP-0">
                    <mxGeometry y="120" width="220" height="30" as="geometry"/>
                </mxCell>
                <mxCell id="eRANCnXTaYhk1zn529qP-14" style="shape=partialRectangle;connectable=0;fillColor=default;top=0;left=0;bottom=0;right=0;editable=1;overflow=hidden;labelBackgroundColor=none;" vertex="1" parent="eRANCnXTaYhk1zn529qP-13">
                    <mxGeometry width="20" height="30" as="geometry">
                        <mxRectangle width="20" height="30" as="alternateBounds"/>
                    </mxGeometry>
                </mxCell>
                <mxCell id="eRANCnXTaYhk1zn529qP-15" value="quantidade utilizada: decimal" style="shape=partialRectangle;connectable=0;fillColor=default;top=0;left=0;bottom=0;right=0;align=left;spacingLeft=6;overflow=hidden;labelBackgroundColor=none;" vertex="1" parent="eRANCnXTaYhk1zn529qP-13">
                    <mxGeometry x="20" width="200" height="30" as="geometry">
                        <mxRectangle width="200" height="30" as="alternateBounds"/>
                    </mxGeometry>
                </mxCell>
                <mxCell id="eRANCnXTaYhk1zn529qP-16" style="shape=partialRectangle;collapsible=0;dropTarget=0;pointerEvents=0;fillColor=default;top=0;left=0;bottom=0;right=0;points=[[0,0.5],[1,0.5]];portConstraint=eastwest;labelBackgroundColor=none;" vertex="1" parent="eRANCnXTaYhk1zn529qP-0">
                    <mxGeometry y="150" width="220" height="30" as="geometry"/>
                </mxCell>
                <mxCell id="eRANCnXTaYhk1zn529qP-17" style="shape=partialRectangle;connectable=0;fillColor=default;top=0;left=0;bottom=0;right=0;editable=1;overflow=hidden;labelBackgroundColor=none;" vertex="1" parent="eRANCnXTaYhk1zn529qP-16">
                    <mxGeometry width="20" height="30" as="geometry">
                        <mxRectangle width="20" height="30" as="alternateBounds"/>
                    </mxGeometry>
                </mxCell>
                <mxCell id="eRANCnXTaYhk1zn529qP-18" value="aplicado em: decimal" style="shape=partialRectangle;connectable=0;fillColor=default;top=0;left=0;bottom=0;right=0;align=left;spacingLeft=6;overflow=hidden;labelBackgroundColor=none;" vertex="1" parent="eRANCnXTaYhk1zn529qP-16">
                    <mxGeometry x="20" width="200" height="30" as="geometry">
                        <mxRectangle width="200" height="30" as="alternateBounds"/>
                    </mxGeometry>
                </mxCell>
                <mxCell id="c8TxxvWtxQdozVp8fG8U-0" style="shape=partialRectangle;collapsible=0;dropTarget=0;pointerEvents=0;fillColor=default;top=0;left=0;bottom=0;right=0;points=[[0,0.5],[1,0.5]];portConstraint=eastwest;labelBackgroundColor=none;" vertex="1" parent="eRANCnXTaYhk1zn529qP-0">
                    <mxGeometry y="180" width="220" height="30" as="geometry"/>
                </mxCell>
                <mxCell id="c8TxxvWtxQdozVp8fG8U-1" style="shape=partialRectangle;connectable=0;fillColor=default;top=0;left=0;bottom=0;right=0;editable=1;overflow=hidden;labelBackgroundColor=none;" vertex="1" parent="c8TxxvWtxQdozVp8fG8U-0">
                    <mxGeometry width="20" height="30" as="geometry">
                        <mxRectangle width="20" height="30" as="alternateBounds"/>
                    </mxGeometry>
                </mxCell>
                <mxCell id="c8TxxvWtxQdozVp8fG8U-2" value="unidade aplicação: enum" style="shape=partialRectangle;connectable=0;fillColor=default;top=0;left=0;bottom=0;right=0;align=left;spacingLeft=6;overflow=hidden;labelBackgroundColor=none;" vertex="1" parent="c8TxxvWtxQdozVp8fG8U-0">
                    <mxGeometry x="20" width="200" height="30" as="geometry">
                        <mxRectangle width="200" height="30" as="alternateBounds"/>
                    </mxGeometry>
                </mxCell>
                <mxCell id="eRANCnXTaYhk1zn529qP-19" style="edgeStyle=elbowEdgeStyle;html=1;exitX=1;exitY=0.5;exitDx=0;exitDy=0;entryX=0;entryY=0.5;entryDx=0;entryDy=0;endArrow=ERmandOne;endFill=0;" edge="1" parent="QIzxBCn8zsCFtVh6Vq-W-1" source="eRANCnXTaYhk1zn529qP-4" target="Pl13lo0GpG_AyRGbWiYM-6">
                    <mxGeometry relative="1" as="geometry">
                        <Array as="points">
                            <mxPoint x="170" y="-110"/>
                        </Array>
                    </mxGeometry>
                </mxCell>
                <mxCell id="c8TxxvWtxQdozVp8fG8U-3" value="Fertilizante" style="shape=table;startSize=30;container=1;collapsible=1;childLayout=tableLayout;fixedRows=1;rowLines=0;fontStyle=1;align=center;resizeLast=1;labelBackgroundColor=none;fillColor=default;" vertex="1" parent="QIzxBCn8zsCFtVh6Vq-W-1">
                    <mxGeometry x="-330" y="-170" width="220" height="130" as="geometry"/>
                </mxCell>
                <mxCell id="c8TxxvWtxQdozVp8fG8U-4" value="" style="shape=partialRectangle;collapsible=0;dropTarget=0;pointerEvents=0;fillColor=default;top=0;left=0;bottom=1;right=0;points=[[0,0.5],[1,0.5]];portConstraint=eastwest;labelBackgroundColor=none;" vertex="1" parent="c8TxxvWtxQdozVp8fG8U-3">
                    <mxGeometry y="30" width="220" height="30" as="geometry"/>
                </mxCell>
                <mxCell id="c8TxxvWtxQdozVp8fG8U-5" value="PK" style="shape=partialRectangle;connectable=0;fillColor=default;top=0;left=0;bottom=0;right=0;fontStyle=1;overflow=hidden;labelBackgroundColor=none;" vertex="1" parent="c8TxxvWtxQdozVp8fG8U-4">
                    <mxGeometry width="20" height="30" as="geometry">
                        <mxRectangle width="20" height="30" as="alternateBounds"/>
                    </mxGeometry>
                </mxCell>
                <mxCell id="c8TxxvWtxQdozVp8fG8U-6" value="fertlizante id" style="shape=partialRectangle;connectable=0;fillColor=default;top=0;left=0;bottom=0;right=0;align=left;spacingLeft=6;fontStyle=5;overflow=hidden;labelBackgroundColor=none;" vertex="1" parent="c8TxxvWtxQdozVp8fG8U-4">
                    <mxGeometry x="20" width="200" height="30" as="geometry">
                        <mxRectangle width="200" height="30" as="alternateBounds"/>
                    </mxGeometry>
                </mxCell>
                <mxCell id="c8TxxvWtxQdozVp8fG8U-13" style="shape=partialRectangle;collapsible=0;dropTarget=0;pointerEvents=0;fillColor=default;top=0;left=0;bottom=0;right=0;points=[[0,0.5],[1,0.5]];portConstraint=eastwest;labelBackgroundColor=none;" vertex="1" parent="c8TxxvWtxQdozVp8fG8U-3">
                    <mxGeometry y="60" width="220" height="30" as="geometry"/>
                </mxCell>
                <mxCell id="c8TxxvWtxQdozVp8fG8U-14" style="shape=partialRectangle;connectable=0;fillColor=default;top=0;left=0;bottom=0;right=0;editable=1;overflow=hidden;labelBackgroundColor=none;" vertex="1" parent="c8TxxvWtxQdozVp8fG8U-13">
                    <mxGeometry width="20" height="30" as="geometry">
                        <mxRectangle width="20" height="30" as="alternateBounds"/>
                    </mxGeometry>
                </mxCell>
                <mxCell id="c8TxxvWtxQdozVp8fG8U-15" value="nome: varchar" style="shape=partialRectangle;connectable=0;fillColor=default;top=0;left=0;bottom=0;right=0;align=left;spacingLeft=6;overflow=hidden;labelBackgroundColor=none;" vertex="1" parent="c8TxxvWtxQdozVp8fG8U-13">
                    <mxGeometry x="20" width="200" height="30" as="geometry">
                        <mxRectangle width="200" height="30" as="alternateBounds"/>
                    </mxGeometry>
                </mxCell>
                <mxCell id="c8TxxvWtxQdozVp8fG8U-16" style="shape=partialRectangle;collapsible=0;dropTarget=0;pointerEvents=0;fillColor=default;top=0;left=0;bottom=0;right=0;points=[[0,0.5],[1,0.5]];portConstraint=eastwest;labelBackgroundColor=none;" vertex="1" parent="c8TxxvWtxQdozVp8fG8U-3">
                    <mxGeometry y="90" width="220" height="30" as="geometry"/>
                </mxCell>
                <mxCell id="c8TxxvWtxQdozVp8fG8U-17" style="shape=partialRectangle;connectable=0;fillColor=default;top=0;left=0;bottom=0;right=0;editable=1;overflow=hidden;labelBackgroundColor=none;" vertex="1" parent="c8TxxvWtxQdozVp8fG8U-16">
                    <mxGeometry width="20" height="30" as="geometry">
                        <mxRectangle width="20" height="30" as="alternateBounds"/>
                    </mxGeometry>
                </mxCell>
                <mxCell id="c8TxxvWtxQdozVp8fG8U-18" value="descrição: varchar(255)" style="shape=partialRectangle;connectable=0;fillColor=default;top=0;left=0;bottom=0;right=0;align=left;spacingLeft=6;overflow=hidden;labelBackgroundColor=none;" vertex="1" parent="c8TxxvWtxQdozVp8fG8U-16">
                    <mxGeometry x="20" width="200" height="30" as="geometry">
                        <mxRectangle width="200" height="30" as="alternateBounds"/>
                    </mxGeometry>
                </mxCell>
            </root>
        </mxGraphModel>
    </diagram>
</mxfile>